<svg xmlns="http://www.w3.org/2000/svg" xmlns:xlink="http://www.w3.org/1999/xlink" viewBox="0 0 707 375"><defs><style>.cls-1{fill:#a67c52;}.cls-2{fill:#fff;}.cls-3{fill:#666;}.cls-4{fill:#d4a87f;}.cls-5{fill:#1a1a1a;}.cls-6{fill:url(#linear-gradient);}.cls-7{fill:#ea493d;}.cls-8{fill:#3a3a3a;}</style><linearGradient id="linear-gradient" x1="16.59" y1="247.91" x2="202.19" y2="247.91" gradientUnits="userSpaceOnUse"><stop offset="0" stop-color="#ea493d"/><stop offset="1" stop-color="#ea4988"/></linearGradient></defs><title>illus</title><g id="Layer_2" data-name="Layer 2"><path class="cls-1" d="M695.94,376.87C694.28,373.6,657.19,300.17,622,221c-34,0-168-5-406,5,2,28,17,149,17,149l462.5,2Z"/><polygon class="cls-2" points="328.5 229.5 357.5 181.5 412.5 194.5 381.5 249.5 328.5 229.5"/><path class="cls-3" d="M419.29,191.17c-2-.51-4-1-6-1.41a3.59,3.59,0,0,1-.86-.27q-12.76-3-25.68-5.19a2.42,2.42,0,0,0-.6,0l-.08,0c-1.08-.28-2.16-.53-3.24-.8l-.26-.11a8.75,8.75,0,0,0-1.77-.4q-11.25-2.74-22.65-4.77a2,2,0,0,0-1.68.43l-.29,0a6.16,6.16,0,0,1-1.11,1.28,4.85,4.85,0,0,1-1.22,1.92l-.3.64a11.42,11.42,0,0,1-2.21,3.06c-.92,1.47-1.89,2.93-2.93,4.4-2.23,3.14-3.51,6.87-5.92,9.89a2,2,0,0,0-.41.79l-15.6,26.92v0q-.24.15-.48.33A3.21,3.21,0,0,0,325,231a3.14,3.14,0,0,0-1,3.62l-.36-.17c-5.13-2.43-12.15-.12-17.5.62-1.86.26-2.91,2.68-2.44,4.31a93.87,93.87,0,0,0,5,13.26,36.79,36.79,0,0,1-14.59-1.71c-3.25-1-6,3.55-3.41,5.85l.21.17c-1.59,1.77-1.49,5.05,1.49,5.7,3.32.71,6.17,2.5,9.38,3.54a32.56,32.56,0,0,0,7.21,1.36,5.3,5.3,0,0,1,1.75-.31c5.26-.06,10.54-1.15,15.8-1a5.63,5.63,0,0,1,.59.05c1-.12,1.95-.23,2.93-.33a4.57,4.57,0,0,1,2.7-.6c8.79.53,17.77-1.62,26.5-2.41,4.34-.39,8.67-1,13-1.28,2.67-.15,5.24-.71,7.87-1.07a3.67,3.67,0,0,0,.43-3.06c1.07-1.51,1.46-3.68,2.57-5.05a4,4,0,0,0,.91-2.27,1.92,1.92,0,0,0,.69-.72l11.11-19.87a2,2,0,0,0,.19-.47q1.61-2.62,3.15-5.28a1.88,1.88,0,0,0,.75-.71c5-8.14,10.19-16.19,14.66-24.66a1.94,1.94,0,0,0,.3-.38l2.38-3.86a1.9,1.9,0,0,0,.35,0,1.84,1.84,0,0,0,.41,0,27,27,0,0,1,1.49-2.33A2.31,2.31,0,0,0,419.29,191.17Zm-17.37,20a105.52,105.52,0,0,0-9.66,16.44,2.21,2.21,0,0,0-.55.55c-1,1.46-2.07,2.89-3,4.41-.79,1.33-1.12,2.84-1.86,4.19a1.88,1.88,0,0,0-.25,1.25l-4.85,8.68-.13,0c-10.1-3-19.83-8.17-29.65-12-5-2-10-3.87-15.08-5.78a47.06,47.06,0,0,0-5.47-2l14.34-24.73a3.05,3.05,0,0,0,.19-.42c1.92-2.71,3.15-5.75,5-8.54,2.1-3.2,4.2-6.16,6-9.47l.14,0,.85.11a1.85,1.85,0,0,0,.87.4l7.18,1.34a1.77,1.77,0,0,0,1,.46c2.42.41,4.83.86,7.24,1.32a1.77,1.77,0,0,0,.55.17l.24,0a1.63,1.63,0,0,0,1.2.77q5.63,1,11.22,2.12a2,2,0,0,0,1-.06c3,.7,6.05,1.43,9.06,2.21a2,2,0,0,0,.94,0c4.07,1.28,8.14,2.54,12.28,3.6C407.93,201.28,405.17,206.42,401.92,211.18Z"/><path class="cls-4" d="M318.28,247.34a12.59,12.59,0,0,0-4.62-1.35,4.9,4.9,0,0,0-1.22-2.05c.28-7.43-10.77-16.84-18.1-15.14h-.9c-1.46-.87-2-1.59-3.92-2a23.53,23.53,0,0,0-8.41,0,26.89,26.89,0,0,0-15.54,8.52,4.21,4.21,0,0,0-.44.39,103.68,103.68,0,0,0-11.27,8.33c-9,2.84-19.27,2.45-28.47,2.48a4.6,4.6,0,0,0-3.59,1.78,133.1,133.1,0,0,0-28.4-3.84,6.23,6.23,0,0,0-2.74-.91,38.22,38.22,0,0,0-9.32.33c-3.86-1.67-7.64-3.53-11.57-5-2.08-1.61-4.15-3.19-5.25-5.51-1.18-2.5-4.63-3-6.84-1.8l-14.89,8.08a5,5,0,0,0-1.54,1.26c-2.77,1.27-5.49,2.67-8.16,4-9.17,4.62-18,9.73-25.53,16.83a5,5,0,0,0,1,7.85A357.53,357.53,0,0,0,148.48,289q2.58,1,5.15,1.89a5.14,5.14,0,0,0,2.41,1.74c5.4,1.93,11.13,4.49,16.64,2a81.16,81.16,0,0,0,16.69-.68c11.82-1.68,23.23-5.18,34.78-8.07,10.45-3.83,20.76-8.13,31.4-11.36.15-.15.31-.29.46-.45,14.49-3.53,28.17-10.86,41-18.35a4.5,4.5,0,0,0,1.75-1.8,60.3,60.3,0,0,1,10.31-1.39,5.7,5.7,0,0,0,.75-.09,16.66,16.66,0,0,0,2-.14,18.77,18.77,0,0,0,2.45-.64c1.16-.32,2.36-.3,3.52-.68C319.34,250.5,319.9,248.15,318.28,247.34Z"/><path class="cls-4" d="M167,114.33a7.85,7.85,0,0,0-2.74-6.17,4.84,4.84,0,0,0-2.07-1.11,22.71,22.71,0,0,0-6-3.31c-.44-.29-.88-.6-1.32-.94a3.48,3.48,0,0,0-2.31-.64c0-1.53,0-3-.13-4.57a.88.88,0,0,1,0-.29,1.8,1.8,0,0,1,0-.22c-.18-.87-.36-1.72-.54-2.5.5-.1,1-.22,1.48-.36,1.29-1.75,3.66-2.37,6-3.08.07-.07.12-.15.19-.22a72.68,72.68,0,0,0,0-11.43c-.13-.46-.25-.91-.37-1.37a6,6,0,0,0,.11-.61c0-.14,0-.29,0-.44-.6-5.84-1.68-11.66-2.71-17.48a1,1,0,0,1,.1-.64c-.28-.74-.58-1.48-.91-2.21A3.68,3.68,0,0,0,152,54.52l-.45-.39c-3.53-2.77-7.24-5.36-10.88-8s-6.52-3.66-10.56-1.43-7.87,5.52-11.58,8.3a30.1,30.1,0,0,0-7.82,7.73c-2,3.12-2.1,9-5.46,10.75a5.38,5.38,0,0,1-.55.24A3.48,3.48,0,0,0,102.19,70c-2.48-.36-3.75-3.91-5.42-5.59a8.88,8.88,0,0,0-8-2.77c-6.8,1.27-8.29,9.11-8.2,15.43a21.41,21.41,0,0,0-2.1,5.22A21,21,0,0,1,71.81,93l-.3-.23c-1.74-1.23-3.8-2.19-5.72-3.3.72-4.92,1.09-10.67-.05-15.48A14.59,14.59,0,0,1,68,69.18c1.23-1.63.53-4.1-.7-5.46A13,13,0,0,0,64,61.07C61,59.16,57.5,61.69,57.27,65a20,20,0,0,1-.36,3.28c-3.15,1.85-5.13,5.68-2.77,8.41a4.87,4.87,0,0,0-1.82,2.42,22.92,22.92,0,0,0-1.25,7.35,4.34,4.34,0,0,0,.06.63c-5.26.16-5.53,7-1.07,8.82a29.1,29.1,0,0,1,10.14,7.06l-2.3.19a4.43,4.43,0,0,0-3,1.47c-1.21,0-2.42.12-3.63.23-5.72.54-5.78,9.54,0,9,2.1-.2,4.18-.28,6.25-.27a44.08,44.08,0,0,0-4.82,5.95c-2.12,3.11.8,6.42,3.88,6.77,10.81,1.23,20.9,6.63,30.75,10.9,4.22,1.83,8.61,4.29,13.16,5.18a18.66,18.66,0,0,0,4.58.25l0,.06-.11.13c1.61-.39,2.91-1.26,4.67-1.19,4.71.18,9,2.28,14,1.94a1,1,0,0,1,1,1.27c-.8,3.46-2.49,6.6-3.39,10a6.08,6.08,0,0,1,1.16.66L122,155v0a4.62,4.62,0,0,0,4.67-2.68,60.94,60.94,0,0,0,13.52-6.52c3.39-2.07,6.74-4.16,10.25-6,3.08-1.63,5.8-3.2,7.62-6.13a24.73,24.73,0,0,0,6.17-7.56,4.41,4.41,0,0,0,.4-3.35c.49-1.23,1-2.45,1.48-3.67a3.74,3.74,0,0,0,.25-2A7.61,7.61,0,0,0,167,114.33ZM138.61,91.71a6.16,6.16,0,0,1-4.8-2.45c-.76-1,1-2,1.73-1a4.12,4.12,0,0,0,3.07,1.46C139.89,89.76,139.89,91.76,138.61,91.71Z"/><path class="cls-5" d="M169.65,56c-4-7.66-11.14-11.36-18.3-15.14a5.17,5.17,0,0,0-.8-1.21C146.07,34.5,140,30.43,134,26.93a4.06,4.06,0,0,0-3.82-2.25H130l-.74-.41c-7.25-3.95-15.14-6.6-23.49-6.25a38.48,38.48,0,0,0-21.88,7.66c-6.55,5.11-9.13,13.14-12.19,20.58q-1,2.57-2,5.16a.86.86,0,0,1,.11.47C69.49,58.33,68.15,64.65,67,71A113.63,113.63,0,0,0,65,82.2a18.52,18.52,0,0,0,3,10.64,5.54,5.54,0,0,0,.95.29c7.41,1.53,9.47-9.76,11.46-14.55.7-1.69,1.41-3.56,2.2-5.43,0,0,0-.07,0-.12.48-5.7,3.73-10.37,9.83-10.78,4.29-.29,5.93,2.61,6.6,6a7.25,7.25,0,0,1,.64,2.61l.3.09a4.25,4.25,0,0,0,2.79,1,5,5,0,0,0,1-.1,3.51,3.51,0,0,0,4.73-2.09A42.85,42.85,0,0,1,120.66,53c2.75-2.25,12.5-8.92,17.87-8.21a4.76,4.76,0,0,0,1.57,1.67l23.39,15.65C167.44,64.78,171.62,59.72,169.65,56Z"/><path class="cls-6" d="M201.7,309.42c-1-4.89-2.34-9.26-1.65-14.29a.8.8,0,0,1,0-.15,10,10,0,0,0-12.17-.32l-3.06.12c-2.41.05-4.83,0-7.24-.06-1.65-.06-3.3-.17-4.94-.3a12.84,12.84,0,0,1-4.55,1.22c-4.5.45-8-2-12-3.61a6.83,6.83,0,0,1-1.53-.83c-2.53-.68-5-1.41-7.52-2.25a27.18,27.18,0,0,0-5.4-2.4,8.13,8.13,0,0,0-1.94-1.47,7.81,7.81,0,0,0-3.9-1.24,8.36,8.36,0,0,0-.85-.14l-.89-.49c-1.31-.69-2.64-1.34-4-2a41.25,41.25,0,0,0-4.82-2.46c-3.3-3.38-7.68-5.45-12-7.6a24.82,24.82,0,0,0-4.69-2.7c-.53-.59-1-1.19-1.56-1.81a4.5,4.5,0,0,1,1.5-2.47c8.56-7.66,18.46-13.82,27.89-20.34,4.73-3.27,10-5.53,14.89-8.53,3.22-2,5.94-4.34,9.24-5.93-5.6-5.45-7.92-13.6-10.59-21a106.55,106.55,0,0,0-6.2-14,16.46,16.46,0,0,1-4-4.92c-.56-1-1.07-2-1.68-3a4.71,4.71,0,0,0-1.66-1.88,3.8,3.8,0,0,1-1.24-1.91,13,13,0,0,1-2.95-3.48c-4.05-4-8.2-8-9.83-13.61-2.55-1.09-4.21-3.87-2.12-6.71a.61.61,0,0,0,.07-.1c.58-5.36,3.58-10.2,4.36-15.56a26.34,26.34,0,0,1-8.92-.54,70.31,70.31,0,0,1-8.92-1.24,5.44,5.44,0,0,1-2.41.69,4.15,4.15,0,0,1-1.75-.33,5,5,0,0,1-3.22-1.27c-9.76-2.94-18.15-9.1-27.75-12.52-5.76-2-12-2.88-17.58-5.24a35.61,35.61,0,0,1-3.66-1.82c-5.48,0-8.71,1.81-12.12,6.54a30.5,30.5,0,0,1-3.93,4.4,9.93,9.93,0,0,0-3.12,2.33,11.21,11.21,0,0,0-2.9,6.94c-6.87,16.05-8.92,34.84-10.87,51.93a7.43,7.43,0,0,0,.07,2.11,11.72,11.72,0,0,0-.79,7.36c.34,1.59.59,3.16.78,4.74a11,11,0,0,0-.12,1.17c-1,17.87,7,34.26,10.63,51.39,2,9.31,3.62,18.12,13.81,21.35,3.59,1.13,7.36,1.7,11,2.58,1.58.38,3.73.75,5.66,1.4a106.35,106.35,0,0,0,.69,18.28,5.38,5.38,0,0,1,.55,1.38c1.4,5.71,1.89,11.58,2.6,17.4a3.67,3.67,0,0,1,0,1c0,.09,0,.18,0,.27a5,5,0,0,1-5,5H57a4.3,4.3,0,0,1-1,.56,9.56,9.56,0,0,0-.85,7.87,307.34,307.34,0,0,1,8.33,37.22c0,.17.07.33.11.5,16.38,0,32.76-.18,49.13-.27,8.08-.05,16.17-.22,24.25.09,4.2.16,8.39.37,12.58.39a15.06,15.06,0,0,0,1.36-.71c.63-.47,1.27-.93,1.89-1.41,2-1.53,3.91-3.14,5.83-4.75,4.39-3.67,8.67-7.42,12.77-11.4,5.6-5.43,11.45-10.69,16.5-16.64a162.3,162.3,0,0,0,13.31-19l.11-.16A25,25,0,0,0,201.7,309.42Z"/><path class="cls-1" d="M202.42,361.49c-.07-.74-.15-1.49-.21-2.23-.57,1.27-1.15,2.54-1.78,3.79a2.44,2.44,0,0,1,.38,0A4.87,4.87,0,0,1,202.42,361.49Z"/><path class="cls-1" d="M42.56,350l5.43,25c5.44.34,10.87.17,16.31,0-.71-2.51-2.1-5.05-2.4-7.5a162.13,162.13,0,0,0-2.55-16.26,3.14,3.14,0,0,0-1.22-1.94,2.91,2.91,0,0,1,0-.31,3.84,3.84,0,0,0-.23-.93q-.88-5.67-1.76-11.34a2.68,2.68,0,0,0,0-.8c-.19-1.62-.36-3.24-.52-4.86-.07-.8-.24-1.71-.33-2.61a6,6,0,0,0,7.15-4.23c.53-2.19-.24-5.29-.45-7.49-.29-3-.63-6-1-9a2.57,2.57,0,0,0-.86-1.64,2.35,2.35,0,0,1,0-.26c-.12-2.49-1-5-1-7.44a2.34,2.34,0,0,0-.41-1.44,2.47,2.47,0,0,0,.37-1.1c.25-3.16.86-10.56-2.79-12.15-2.3-1-5.63-1-8.08-1.34-2.22-.35-4.42-.72-6.65-.93A2.27,2.27,0,0,0,39.4,280a2.51,2.51,0,0,0-1,.21c0-.09,0-.18-.05-.26-.09-.64-1.06-.37-1,.26q.06.35.15.69a2.72,2.72,0,0,0,.22,3.45c0,.1.06.2.1.3a.29.29,0,0,0,0,.1.3.3,0,0,0,0,.1A.9.9,0,0,0,38,285a.31.31,0,0,0,.07.09l.05.09a7.55,7.55,0,0,0-2.44,2.49c.77-1.27.17-.3-.35.14-.36.31-.73.6-1.07.95a10.61,10.61,0,0,0-2.8,5.2c-.74,3.66-.09,7.56.52,11.18a5.42,5.42,0,0,0,.59,1.68,3.4,3.4,0,0,0,.1,1.21c1.1,4.28,2.24,8.56,3.31,12.86.9,3.62,1.08,7.35,2.11,10.94,1,3.41,1.91,6.89,2.68,10.34.57,2.53.47,4.43,1.76,6.5A3.85,3.85,0,0,0,42.56,350Z"/><path class="cls-3" d="M150.22,374.87c3.24.68,6.62.05,9.9,0,3.59-.07,7.21.07,10.8.15,7.31.16,14.61.4,21.92.47,13.34.13,26.67-.22,40-.28a31.74,31.74,0,0,1-1-7.26c-.31-7.08-2-14-2.6-21.1-.63-8.08-.68-16.27-2.12-24.27-.73-4.05-1.75-8-2.2-12.13-.47-4.27-.39-8.56-1.1-12.81a5.55,5.55,0,0,1-.08-1,3.31,3.31,0,0,0-2.19-.14,25,25,0,0,1-18.34-.89c-3.71-1.69-6.74,2.33-4.24,5.49a16.52,16.52,0,0,1,2.67,4.85,13.36,13.36,0,0,0-.22,4.25c.13,2.23.25,4.45.38,6.68-2.48,9.59-10.65,19.16-16.32,25.23-5,5.3-10.17,10.32-15.31,15.42-3.84,3.81-7.61,8.3-12,11.71a39.67,39.67,0,0,0-5.33,3.32,4.66,4.66,0,0,0-.61.55c-.27.07-.53.15-.81.21a3.1,3.1,0,0,0-2,1.44A6.46,6.46,0,0,1,150.22,374.87Z"/><path class="cls-2" d="M290,279c3,0,103-5,103-5l30,20-110,8Z"/><path class="cls-3" d="M263,305l2-1,104-1,15,25-1,5-120,2-1-19S261,305,263,305Z"/><polygon class="cls-2" points="272 306 363 305 373 326 273 330 272 306"/><path class="cls-7" d="M347.66,288c-3.66.4-7.32-.19-11,.54a1.87,1.87,0,0,0-1.46-.67l-4.47.2a2.12,2.12,0,0,0-1.44.65q-13.26.43-26.47,1.58a58.71,58.71,0,0,0-12.33,1.21,1.91,1.91,0,0,0-.34.1c-1,0-1.95-.06-2.94-.16-2.55-.26-2.54,3.74,0,4a86.19,86.19,0,0,0,11.7,0c2.89-.1,6.13.35,8.7-1.11a1.23,1.23,0,0,0,.31-.24,56.58,56.58,0,0,0,7.13-.38,2.51,2.51,0,0,0,1-.35q6.94-.42,13.89-.65a1.9,1.9,0,0,0,1.43-.65l3.78-.17a1.76,1.76,0,0,0,.45-.07A65,65,0,0,0,347.92,290C349,289.7,348.8,287.88,347.66,288Z"/></g><g id="Layer_1" data-name="Layer 1"><path class="cls-8" d="M57.07,97.32c-3.75-1.58-5.86-.27-5.13-.09C53.54,97.61,57.8,97.64,57.07,97.32Z"/><path class="cls-8" d="M51.57,228.94c-8.48-19,3.32-46.29,22.93-62.47.29-.24-.1-.76-.41-.53a67.58,67.58,0,0,0-21.32,27.93C41.39,221.05,52.71,231.51,51.57,228.94Z"/><path class="cls-8" d="M137.72,193c-14.47-26-8.48-9.69-.29.23C137.56,193.42,137.82,193.2,137.72,193Z"/><path class="cls-8" d="M100.16,261.34c5.8-5.62,7.46-9.51,22-19.14,15.09-10,20-10.83,26.49-15,.13-.09.05-.31-.11-.26-10,2.95-41.65,22.15-48.71,34.13A.22.22,0,0,0,100.16,261.34Z"/><path class="cls-8" d="M101.8,254.58c7.67-6.32,15.13-14.09,24.64-17.61.8-.29-2.25-.67-12,6.82a141.9,141.9,0,0,0-12.9,10.55C101.38,254.5,101.63,254.72,101.8,254.58Z"/><path class="cls-8" d="M36.6,279.21a32.65,32.65,0,0,0,.73,5.3c.08.51.83.29.76-.21-.21-1.44-.35-3-.71-4.43,6.15,4.9,12,3.72,18.48,4.44a.43.43,0,0,0,.23,0,19.35,19.35,0,0,1,1.67,1c-.91,1.84.61,3.4,2.32,4a63.13,63.13,0,0,0,11,1.59.42.42,0,0,0,.11-.81c-2.91-1.1-12.29-.33-12.79-4.43,2.9,1.92,3.16.82,2.92.34-.48-.95-3.93-2.5-4.68-2.83A2.31,2.31,0,0,0,55,283c-4-1-8.26-.21-12.23-1.61C30.42,277,31.45,264.91,30.56,259.9c-2.29-12.88-22-31.47-8.26-94.8.15-.11.82-.75,1-.88a.63.63,0,0,0-.28-1c.05-.22,1.93-8.62,1.71-8.64,1.52-9.62,2-16.44,12.22-24.82a18.39,18.39,0,0,0,5.89-9.13c.06-.23-.3-.41-.4-.17-5.22,12.27-9,7.78-14.46,18.77-3.89,7.8-4.82,16.76-6.73,25.17a.62.62,0,0,0,0,.19c-1.66,7.15-3.55,18.72-4.79,36.56-.9,13-.54,17.07,3,31.39,4.7,19.14,8.4,19.43,9.89,28.18C30.38,267.1,30.45,273.72,36.6,279.21Z"/><path class="cls-8" d="M102.08,280.11c-6.07.84-10.67.08-30.57-2.07-9.52-1-18.48-2.43-27-7a.33.33,0,0,0-.33.56c7.69,5.18,17.53,6.87,26.55,8,9.83,1.25,20.11,3.2,30.05,2.09-.82,1.2.56,1.54,1,.95s.77-1,1.14-1.5S102.62,280,102.08,280.11Z"/><path class="cls-8" d="M36.21,253.49c-.22-.18-.52.11-.32.32,11.27,11.68,15.23,11.24,26.16,13,6,1,6.53.8,7.32,1.38,1,.72.74,2.06,1.82,2.74a2.32,2.32,0,0,0,2.64,0,.57.57,0,0,0-.44-1c-1.71.3-2-2-3-2.73a8.14,8.14,0,0,0-3.69-1C46.21,263,49.68,264.73,36.21,253.49Z"/><path class="cls-8" d="M84.28,252.71c-4.62-1.51-7-.94-16.42-5.73a.33.33,0,0,0-.33.57C79,254.53,86.54,253.44,84.28,252.71Z"/><path class="cls-8" d="M122.52,279.17c-30.24,15.28-48.76,3-58.53,6.86-.39.16-.39.85.11.81,5.38-.39,10.37.56,15.68,1.21,12.22,1.52,29-1,42.91-8.6C122.87,279.35,122.71,279.07,122.52,279.17Z"/><path class="cls-8" d="M69.11,293A22.41,22.41,0,0,1,63,291.8c-.37-.15-.55.42-.26.62,2.22,1.49,5.22,1.44,7.8,1.73,1.86.21,4.45,1,5.8-.77.24-.3.13-.91-.35-.86a3.75,3.75,0,0,0-1.16.24.24.24,0,0,0,0,.46C73.19,293.87,70.52,293.13,69.11,293Z"/><path class="cls-8" d="M138.74,287.64c-7.35,1.08-40.07,12.62-58.15,12.84a.44.44,0,0,0,0,.88c9.87.28,19.55-2.47,29.05-4.83.47-.12,25.69-6.38,29.45-8C139.62,288.26,139.21,287.57,138.74,287.64Z"/><path class="cls-8" d="M51.17,285.31c-.09-.33-.66-.27-.62.09,1,9.67,2.12,7.4,4.84,32.39.37,3.41.41,7,1.13,10.33.1.48,2.2,3.46-2-21.05C53.32,299.85,53,292.41,51.17,285.31Z"/><path class="cls-8" d="M70.34,305.16c-1.67-.36,2,2.52,22.78,5.16,19,2.41,26,.78,24.19.73C90.47,310.31,95.1,310.62,70.34,305.16Z"/><path class="cls-8" d="M144.79,308.49c-24.84,7-27,6-44.42,4.84a.27.27,0,0,0-.07.53c14.18,3.46,28.52.4,42.28-3.38a21.83,21.83,0,0,0-3.26,3.62.53.53,0,0,0,.72.72c2.05-1.38,3.66-3.46,5.39-5.22A.67.67,0,0,0,144.79,308.49Z"/><path class="cls-8" d="M40.3,284.55a.53.53,0,0,0,.11-.09c.56.29,1.14.54,1.68.89s1.25,1.24,2,1.39c.43.08.59-.6-1.63-2-2.66-1.7-3.2-1-2.72-.65-13.94,6.29-7.88,22-5.88,30.95.07.31,8.43,38,13.75,60H49c-3.76-16.49-10.46-44-15.92-67.65C31.42,300.29,28.54,290.69,40.3,284.55Z"/><path class="cls-8" d="M102.36,357c-7.38-1.77-15.33-1.56-22.54-4.1-4.45-1.56-10.86-7.3-12.67-10.59a12.81,12.81,0,0,0-2.33-3.56c-.32-.3-.93.11-.64.49,2.17,2.82.94,4,5.95,8.6,7.47,6.79,9.4,6.8,19.5,8.48,4.11.69,8.44,1.54,12.63,1.45A.39.39,0,0,0,102.36,357Z"/><path class="cls-8" d="M111.65,359a.52.52,0,0,0-.76-.58C105.65,361.56,84,365.9,71,355c-.47-.4,7.65,10.87,32.31,7.23C105.75,361.9,110.75,361.85,111.65,359Z"/><path class="cls-8" d="M141.44,346.45a.58.58,0,0,0-1.13.16c.24,3-3.53,2.83-12.57,7.63a114.34,114.34,0,0,0-28,20.76h1a106,106,0,0,1,32.52-22.22C135.65,351.72,142.35,350.31,141.44,346.45Z"/><path class="cls-8" d="M182.46,300.89c-.55,3.65-3.71,5.9-6.37,8.14-20.76,17.55-46.51,25.88-56.17,39.44-.18.26.25.6.44.34C130.3,336,153.21,328,172.65,313.33c9.64-7.29,11.2-9.75,10.75-12.44A.49.49,0,0,0,182.46,300.89Z"/><path class="cls-8" d="M186.65,306c.44-.23,0-.87-.39-.66-4.36,2.1-7.12,6-10,9.69-10.35,13.31-19.37,9.37-43,29.49-3.21,2.73,11.58-3.39,28.57-14,8.82-5.51,17.53-10.57,27.62-13.37.52-.15.44-1.05-.13-1-15.83,1.93-24.62,13.38-53.08,26.94,10.82-9,20.55-13.05,28-16.84C178.56,318.92,178.1,310.56,186.65,306Z"/><path class="cls-8" d="M63.09,347.86A42.85,42.85,0,0,0,70,358a.26.26,0,0,0,.41-.32c-7-11.06-8.46-12.5-12.21-27,.4,0,.38,0,0-.05-.07-.28-.15-.57-.22-.86,3.45-2.73,7.69,1.52,5.33-12.93-.6-3.68-1.66-7.11-2.4-10.95,3.27,4.24,11.52,5.65,16.78,6.44,15.23,2.27,25.34,9.53,25.78,10,.8.24.93.7.4,1.4q.12,1.26-.93.9c-.47,0-.5.63-.11.78,1.17.43,3,.58,3.49-.9.48-1.31-.69-2-1.61-2.67C84.11,307.44,58.35,311.3,60.51,301a.34.34,0,0,0-.46-.38c-.26-2.38-.14-2.45-.24-4.18.92,1.56,13.39,8.28,25,10.45,21.86,4.08,33.68-2.14,30.23-1.76-9.86,1.1-20.32,3.73-41.54-2.7-12.31-3.73-13.81-7.05-13.81-7.05,0-.32-.09-.63-.16-.95,2.34,2.07,6.77,3.19,9.73,3.72,6.51,1.18,11.78-.14,16.45-1.13.81-.18,7.64-1.81,7.58-.66,0,.86,1.45.47,1.44-.35,0-3.17-4.8-1.31-13.69.37-12.74,2.4-23.4-2.77-20.84-4.62a.27.27,0,0,0-.1-.5.42.42,0,0,0-.16-.53,1.43,1.43,0,0,1-.68-1.53c0-.35-.47-.44-.64-.17a1.79,1.79,0,0,0,.9,2.42c-1.12.59-1.09,2-.11,2.88-2.12.06,1.28,16.41,1.72,19.14,2.7,16.77-.08,12-3.67,15a.41.41,0,0,0-.62.18,40.48,40.48,0,0,0-5.74-3c-.38-4.18-6-34.76-6.63-37.3.45-.13.25-.78-.21-.7C36.68,289,35.18,298,36,304.28c.29,2.09,9.44,45.62,15.25,70.72h1.53C38.27,309.46,30.19,292.77,44,288.51c.18,1.51,6.06,37.39,6.75,37.66a19.15,19.15,0,0,0,3.32,2.17c-.44.62,5.66,29.6,9.44,46.66H65c-3.29-16.37-9.13-43.66-10-46.15.68.37,1.35.75,2,1.17a50.9,50.9,0,0,0,4.2,13.8c.24,2.32,2.95,17.6,5.08,22.91-.28.13,0,3.7.9,8.27h1.35c-.75-3.35-1.42-6.26-1.47-6.48a73.59,73.59,0,0,0,3.5,6.48h1.68a65.1,65.1,0,0,1-4.76-8.52C65,360.56,64.45,354.09,63.09,347.86Z"/><path class="cls-8" d="M168.19,333.43a26.84,26.84,0,0,1-2.43,3.29,43,43,0,0,1-4.14,2.94c-.51.39-.26,1.34.47,1.12,6.41-2,6.75-6.66,10-9.83,4-3.91,9.1-8.38,14.85-9a.45.45,0,0,0,0-.9C180.17,321.07,170.69,330.09,168.19,333.43Z"/><path class="cls-8" d="M166,346.38c3.29-.85,7.56-2.87,7.38-6.88a.55.55,0,0,0-1.08-.15c-1.67,5.69-7.73,5.42-12.27,7.38-4.23,1.82-7.4,6.07-10.65,9.19-6.92,6.64-14.17,13-21.56,19.08h1.63C159.18,352.29,151.91,350,166,346.38Z"/><path class="cls-8" d="M192.38,358.31a46.7,46.7,0,0,1-3.13,16.36c-.1.27.33.45.46.2a30.34,30.34,0,0,0,3.21-16.56A.27.27,0,0,0,192.38,358.31Z"/><path class="cls-8" d="M175.59,357.59a.17.17,0,0,0,.13.3c-2.45,3.84-4.91,7.63-7.52,11.39-.19.26.22.57.44.34C172.9,365.29,178.71,355.67,175.59,357.59Z"/><path class="cls-8" d="M315.81,249.13c-.2-.8-.83-3.14-1-2.3C314.46,248.35,315.94,249.65,315.81,249.13Z"/><path class="cls-8" d="M306.81,245.61a.15.15,0,0,0-.26.15,3.62,3.62,0,0,1-.1,3.31C306.27,249.82,308.19,247.6,306.81,245.61Z"/><path class="cls-8" d="M284.24,233.93c-.29-.2-.66.21-.5.43-.13-.19,0-.14-.29,0a5.8,5.8,0,0,0-.59.36c-2.05,1.24-2.83,1.33-4,2.06-.48.3-.31,1.47,3.42-.61C282.78,235.91,285.41,234.76,284.24,233.93Z"/><path class="cls-8" d="M290.5,241.33a23.74,23.74,0,0,0-5.48,1.78c-.28.15-.07.51.2.47a40.53,40.53,0,0,0,5.48-1.53A.37.37,0,0,0,290.5,241.33Z"/><path class="cls-8" d="M258.15,247.56c-.35-.14-.52.39-.24.58,4.07,2.82,2.51,1.19,5.8,4.89C264.46,253.88,265,250.28,258.15,247.56Z"/><path class="cls-8" d="M303.08,266.38c-.6.22.43.74,2.23.17C305.91,266.36,304.18,266,303.08,266.38Z"/><path class="cls-8" d="M366.65,260.91c.7,0,3.59-.4,3.85-.8.31-.05.31-.69.3-1l.23-.05a.29.29,0,0,0-.08-.56c-.47,0-4.9.3-4.43.86a.87.87,0,0,0-.16.92A.39.39,0,0,0,366.65,260.91Zm3.68-1.72,0,.16a13.33,13.33,0,0,0-3.13.57.76.76,0,0,0,0-.45C367.59,259.48,370,259.24,370.33,259.19Z"/><path class="cls-8" d="M364.68,260.82c.67-.1.51-1.21-.16-1.18a9.62,9.62,0,0,0-2.54.55C361.05,260.86,363.54,261,364.68,260.82Z"/><path class="cls-8" d="M373.84,259.87c1,.21,1.8-.81,1.26-1.51a1.39,1.39,0,0,0-2.46.75C372.58,259.92,373.44,260.4,373.84,259.87Zm.14-.25h0S374,259.56,374,259.62Z"/><path class="cls-8" d="M384.44,187.15l.06,0c1.81,1,1.58-1.92-.2-1.43a.86.86,0,0,0-.55.39c-.06.17-.08.21-.05.13C383.42,186.75,383.94,187.21,384.44,187.15Z"/><path class="cls-8" d="M411.09,195.68a.39.39,0,0,0-.3-.47c-9.06-1.78-53.7-11.58-53.7-11.58-.53-.26-27.1,43.84-26.61,44.13a.35.35,0,0,0,.1.6c12.72,4.27,25.12,7.78,50.64,19.13.45.2.85-.35.61-.65,9-17,11.31-21,21.81-38.34C405.47,205.48,412.4,195.39,411.09,195.68Zm-29.88,50.84c-16.42-7-33.26-13.68-50.38-18.79.29-.25,25.74-42.13,26.33-43.79,17.59,4.06,35.27,7.64,52.78,11.95l-.13.18c-.22.29.12.66.42.64C405,203.41,382.44,243.63,381.21,246.52Z"/><path class="cls-8" d="M332.93,255.33a9.3,9.3,0,0,0-1.9.14c-.32,0-.32.54,0,.5a9.9,9.9,0,0,0,1.94-.36A.14.14,0,0,0,332.93,255.33Z"/><path class="cls-8" d="M321.2,250.42c-.22.05-.15.35.05.37a8.86,8.86,0,0,0,2.9-.28C325,250.29,323,250,321.2,250.42Z"/><path class="cls-8" d="M320.38,254.91a20.74,20.74,0,0,0,4.11-.8c1-.23-2.47-.2-4.18.3A.26.26,0,0,0,320.38,254.91Z"/><path class="cls-8" d="M330.41,243.11c-.41.09-.8.2-1.2.32-.13,0-.08.24.05.2.4-.12.79-.25,1.18-.4A.06.06,0,1,0,330.41,243.11Z"/><path class="cls-8" d="M326.45,241.39c-.42-.12-2.75.18-2.6.58.31.89,0,.74.28.14a5.7,5.7,0,0,0,2.37-.3A.23.23,0,0,0,326.45,241.39Z"/><path class="cls-8" d="M312.55,237.36c5,0,4.68-1.2,0-.3A.15.15,0,0,0,312.55,237.36Z"/><path class="cls-8" d="M361,255.63c.25.08.45-.1.7-.13.89-.12.7-.83-.18-.38-.38.2-.36,0-.61.28A.16.16,0,0,0,361,255.63Z"/><path class="cls-8" d="M337.82,253.34a10.48,10.48,0,0,0-2.89.33.11.11,0,0,0,0,.21,10,10,0,0,0,2.89-.33C338,253.51,337.94,253.36,337.82,253.34Z"/><path class="cls-8" d="M402.89,220.64c17.79-30.64,17-29.12,16.62-29.4,0-.7-16.62-4-48-10.87-4.91-1.08-9.9-2.64-14.95-2.61a.27.27,0,0,0-.16.47c-6.87,8-22.2,34.7-27.37,43.8-.22-.48-130.16,3.2-113.55,3.33,0,1.87,1.43,19.95,1.74,21.6-4.63-.47-9.23-1.33-13.79-2.07-34.86-5.59-20.49,6.6-42-14.63a.4.4,0,0,0,.08-.23.43.43,0,0,0,.1-.58c-2.67-3.8-5.46-7.52-8.29-11.21-.68-6-5.23-18.26-13-28.92-3.58-4.89-7.64-9.43-11.29-14.28-2.93-3.9-5.55-8.06-8.38-12,.16-.32-.75-1.87-.94-2.17.3-.47.6-2,2.09-5.51.77.44,8.07-3.7,10.7-5,20.93-10.68,31.7-13.58,34.84-35.66.86-6.07-2.6-6.92-11.31-11.61a.24.24,0,0,0-.14,0c.52-.53.94-1,1.15-1.27.13.36.71.13,1.05,0s.12-1-.52-.69c2.55-3.62-2.22,2.2-5.22,4.07-.11-1.73-.18-3.47-.31-5.2.48-.26,3.62-3.81,6.43-3.11.77.88.85,1.63.25,2.26-.07.09.08.18.15.11,2.91-2.4-1.76-4.71-5.51-1.82a2.23,2.23,0,0,0-1.7-1.62c.22,0,.72-1.19.89-1.4,1-1.19,2.86-1.49,4-2a.4.4,0,0,0,.21-.39l.55-.1a4.81,4.81,0,0,0,1.76-.08.16.16,0,0,0,.05-.3,1.09,1.09,0,0,1-.26-.22c.2.09.39.19.58.26s.55-.33.31-.52c-.66-.52-2-.9-1.61-.07-1,.2-2.66.39-2.19.87-4.66.9-4.78,3.68-4.33,3.88a2.1,2.1,0,0,0-.79,0c0-.25.17-1.19-.07-1.11,1.87-5.89-6.53-6.16-8.48-3.83-.51-.33-1-.65-1.58-1,.19-.17.68-.82.61-1,3.53.32-3.92-1.43-6.64-2.11-8.73-4.85-19.42-11.85-28-17.17.57-.37,1.12-.75,1.64-1.14.23-.18.11-.66-.23-.53a26,26,0,0,1-2.71.87l-.83-.51a28,28,0,0,0,3.76-1.64.43.43,0,0,0-.43-.74,33.87,33.87,0,0,1-4.24,1.83l-1.81-1.09c2.52-1.55,5.68-2.35,8.38-3.35.4-.15.24-.78-.18-.65a41.76,41.76,0,0,1-9.78,1.3c.93-.66,1.16-.5,7.57-2.68.28-.1.17-.54-.12-.45C100.24,63,100,63,99.27,63.8c-1.25,1.47,6.07-.25,7.92-.48-1.18.41-5,1.86-6.11,2.76-1.56-.93-2-1.37-2.34-.77-4.56-6.75-15.8-3.58-16.39,6.65-.86,14.74,4.92,28,9.43,23.27A3.82,3.82,0,0,0,92,96.47a.19.19,0,0,0,.37-.06,7.77,7.77,0,0,1,.62-3.5.32.32,0,0,0-.55-.32,4.57,4.57,0,0,0-.35.7.48.48,0,0,0-.73.12c-3.09,5-6.77-6.86-7.2-8.75-2.07-8.91-2.81-20,6.14-21.87a7.57,7.57,0,0,1,9.26,7.54c0,.24.33.23.36,0a7.4,7.4,0,0,0-.69-4.1l1.07.71c-.2.33,0,.54.41.27l1.52,1c-3,1.6-2.09,2.38-1.62,2.19,1.06-.41,2.16-.79,3.28-1.12l.54.34c-.54.34-1.07.69-1.57,1.06a.35.35,0,0,0,.36.6,21.35,21.35,0,0,0,2.14-1.07c5.4,3.41,25.93,15.94,28.79,17.7-3.48-.87-2.8.39.85.53l1.42.87a2,2,0,0,0-.38,1.63L136,91a8.06,8.06,0,0,1-2.16-2.51.18.18,0,0,0-.32.18,6,6,0,0,0,2.29,2.71c.07.15.23.11.38.2a.41.41,0,0,0,.55.27,3,3,0,0,0,1,.23,1,1,0,0,0,.95,0c.24.12.36,0,.32-.2l.06,0s.07,0,.08-.08a1.36,1.36,0,0,0,.35-.55c1,.64,2.86,1.48,3,.32.07-.45-.61-.52-.6-.08a33.8,33.8,0,0,0-3-1.8l.94.46a25,25,0,0,0,2.68,1.11c.13,0,.19-.14.09-.22a9.84,9.84,0,0,1,4.73-.78c3.91.52,3.22,3,3.32,4.6-.1.37-.21.75-.33,1.11a.49.49,0,0,0-.14.39c-.2.47-.47.9-.67,1.38-.07.15.15.24.25.15a3,3,0,0,0,.78-1.16c.45,0,.52-.25,1.09,0a.15.15,0,0,0-.18.14C151.35,109.08,154.71,116,148,115c-1.57-.23-3.41-.45-4.62.85-1.55,1.66-1.08,6.91-.6,7.1a1.71,1.71,0,0,1-.5,1.28.13.13,0,0,0-.11,0,2.47,2.47,0,0,1-1,.47.1.1,0,0,0-.07.08,13.19,13.19,0,0,1-1.67.51c-.33.07.72.41,1.6.09a3.34,3.34,0,0,0,1.39-1,2,2,0,0,0,.75-1.57c.09-.2.14-3.39.32-4.14,1.2-5.16,6.56-.66,9-4.28,1.34-2,.17-5.25-.07-8.84.35.44,2-1.06,3.31-2.35a.22.22,0,0,0,.1.21c9.53,6,12.46,5,9.81,15.15-4.83,18.51-12.86,19.76-34.29,30.61-2.91,1.48-6,2.81-8.83,4.53,2.54-6.09,2.5-9.15,2.2-9.78,7.06-.5,8.28-2.54,9.84-6.69,1.77-4.74.66-6.19,2.5-7,.76-.32,1.42-.34,2-.66a.7.7,0,0,0,.4.17,33,33,0,0,0,9.08-.73c9.1-1.89,9.06-3.36,8.47-3.2-5.44,1.53-6.43,3.43-16.93,2.67a2.75,2.75,0,0,0,0-2.71c-.12-.21-.42-.06-.38.17a2.87,2.87,0,0,1-.49,2.51.53.53,0,0,0-.36.35c-1.06.81-2.7.75-3.06.92-1.72.8-1.41,3.84-2,6-1.73,6.84-4.81,7.52-14.52,6.73-4-.33-7.57-1.68-11.45-2.35a.52.52,0,0,0-.4.94l.55.3c-4.68-1.24-6.5-7.92-12.8-20.47-.47-1,.23,3.38,5.82,14.19,1.21,2.35,2.95,6.38,6,6.81-4.72,1.63-2.37-2.13-8.12-6.86-2.69-2.2-5.82-3.33-7.44-6.65-.07-.14-.32,0-.26.11,1.56,4,6.52,5.34,9.11,8.53a18.06,18.06,0,0,1,2.25,4c-.48-.29-9.32-4.82-20.6-9.52-20.79-8.68-11.92-5.93-30.1-9.22,5.87-5,12.5-14.31,15.79-23.7a.59.59,0,0,0,.17-.5,39.25,39.25,0,0,0,1.3-4.76,7,7,0,0,0,2.14,1.46c.24.1.49-.17.29-.37-2.63-2.66-4.52-5.11-4.76-9,0-.24-.38-.39-.5-.14a3.78,3.78,0,0,0-.19.49c-.52-5-.4-10.28,1.23-14.84a14.88,14.88,0,0,0,.39,2.92.14.14,0,0,0,.28,0c.16-8.26.64-9.17,3.39-17,.08-.22-.29-.38-.4-.16-.57,1.15-1.12,2.4-1.61,3.69,1.55-6.36,2.33-12.74,6.3-18.22.14-.2-.18-.45-.34-.26C69,49.51,68.55,61.35,69,61.31c-.27.77-.52,1.55-.74,2.35a26,26,0,0,0-4.54-2.91c-4.66-2.57-7.64,1.83-6.29,4.09.41.7.2-1.66.89-2.69,2.47-3.71,6.71.75,9.77,2.13a24.38,24.38,0,0,0-.81,5.52,19.45,19.45,0,0,0-1.11,2.86c-1.27-4-7.64-4.23-8.9-7.62-.18-.47-.82.87.78,2C51.74,69,52.58,74.84,55,76.49a4.85,4.85,0,0,0-4,3.31C50.16,82,51.07,84,52,86c-2.15-.45-4.26-.42-5.36,1.84a7.22,7.22,0,0,0,2.31,8.93c3.88,2.94,6.41,1.39,8.45,4.52a4.28,4.28,0,0,0,1.33,1.44c-4.64.78-10.46,2.14-12.26,5.83-1.37,2.83.83,6.05,5.43,5.26,2.61-.46,4.6-1.54,7.3-1a70.62,70.62,0,0,1-7.44,8c-4.45-.73-7-2.24-8.14-.19s13.29,3.64,15.65,3.94C70.1,126,92,136.09,99.53,140.56c1.2.71,4.16,1.89,3.67,3.8-.31,1.2-1.69,2.34-2.52,3.2a.45.45,0,0,0-.13.28q-3.43-1.71-6.88-3.38C86.25,138,66.72,130,63.37,130.8a.25.25,0,0,0,.06.49,17.78,17.78,0,0,1,4.49.57s-.08,0-.09.09c-1.28,4,3.51,6.19,9.33,10.41,13,9.47,14,12.65,15.43,14.36-11.32,1-15.53,6.5-14.17,5.64,8.1-5.12,17.87-5.85,27.18-4.27,9.79,1.67,14.92,9.16,20.08,16.87.52.77,1.75.06,1.25-.73-.19-.31-.39-.6-.58-.9,13.94,18.85,16.74,17.56,25.45,42.86-28.49-36.74-34.32-50.44-40-53.23a.14.14,0,0,0-.14.24c3.39,2.27,3.15,2.82,20.74,28.74a33.71,33.71,0,0,0-7-5.61c-.19-.11-.43.17-.25.32,11.88,9.76,17.68,21.59,35.47,43.07-6.84,2.09-13.34,5.89-32.22,18.49-13.76,9.19-21.4,13.13-23.14,20.47-3.13-4-7.06-7.53-10.65-11.12-13-12.94-16.34-14.76-21.6-19.38.39-.48-.46-.85-1.84-1.69-3.13-3-3.86-4.46-6.66-8.46-1.77-2.53-3.59-5-5.37-7.54-.13-.18-.42,0-.3.17,2.91,4.44,6.2,10,9.37,14.05a23.25,23.25,0,0,1-6.95-6.33.2.2,0,0,0,.08-.33c-2-1.74-7.66-11.18-8.52-17.77-.21-1.6-1.92,3,5.45,15-3.17-3.11-4.5-5.51-6.49-10-1-2.33.21,6.89,7.91,12.28a28.25,28.25,0,0,0,10.75,9.73c3,3,6.65,5.64,9.8,8.45-11-3.33-15.77-.43-24.85-8.74a.67.67,0,0,0,.12-1C40.94,219.85,42.46,206.5,36.9,188.77a.18.18,0,0,0-.34.1c.68,4.24,5.11,22.8,6.53,27.33A55.61,55.61,0,0,0,52,233.77c-11.43-10.56-15.1-13.07-18.85-18.13-5.36-7.23-7.06-3.58-6-2.86.18.12.36-.14.23-.29a1.58,1.58,0,0,1,2.07.16c1.29.73,2.46,3.06,3.9,4.85,1.75,2.18,2.55,2.9,19.2,18.34,8.58,7.95,9.7,7.39,21.2,9.78a55.53,55.53,0,0,0,8.18,1.51c16.45,15,16.27,16.89,22.78,23a.65.65,0,0,0,.45.17c.58,1.2,3.16-.34,4.07-1a20.27,20.27,0,0,0,2.14,1.61c-3.09.69-6.15,1.69-9.17,2.5-2.74.74-5.69,1.23-7.8,3.26a.71.71,0,0,0,.31,1.18c10,1.79,11.39-.39,10-.58-2.67-.34-5.35-.29-8-.57,3-1.87,9.38-2.66,15.95-5a282.83,282.83,0,0,0,37.88,19.05c-12.4,8.46-9.4,5.62-25.73,13.88a.56.56,0,0,0-.11.87c3.29,2.82,5.8.23,4.1.07a8.29,8.29,0,0,1-2.61-.5c7.76-4.86,19.85-8.44,25.38-13.89,12.26,5,14.35,5.94,22.31,3.88,5.52,1.2,18.64-.66,24.15-1.69a11.42,11.42,0,0,1,.26,4.06.26.26,0,0,0,0,.24c-.94,8.81-6.28,17.7-4.07,16.74-1.29,1.57-4.46,5.3-2.53,5.93,1.42.48,3.25-1.06,4.27-1.9,3.27-2.69.22-4.43,0-3-.27,1.92-2.48,2.27-3.28,3.78a28.7,28.7,0,0,1,2.25-3.34c3.37-4.63,4.45-3.91,6-5.63a4.22,4.22,0,0,0,.27-.36c.09,1.65-2.61,10.46-10.42,15.7-4.74,3.18-11.63,3.94-14.22,9.65-1.08,2.37,6.09,1.61,8.18-2.92a.49.49,0,0,0-.77-.59,10.6,10.6,0,0,1-5.14,2.93c4.34-6.27,16-4.73,22.47-20.93.06,3.42-1.47,6.69-3.14,9.76-.27.24-.55.46-.84.68a.26.26,0,0,0,.22.46c-8.61,15.48-13.93,19.36-27.86,32.73-7.11,6.83-15.45,12.11-23.57,17.67h3.23c9.17-6.17,13.49-7.81,24.38-19.42.12.39.74.45,1.76.62C173,357.7,167.27,366.74,165,372c-.1.25.24.46.38.22,2.63-4.59,8.19-14.37,11.36-15.88,4.43.28,6.8-1.19,9.41-1.16a33.18,33.18,0,0,1,5,.72c6.92,1.17,11,2.59,8.91,9.39-1.92,2.93-3.88,5.85-5.73,8.84-.37.33-.7.61-1,.85h1.4c.8-.85,1.82-2.08,1.72-2.31,10.35-12.78,10.36-14.71,12.59-26,5.74-29.09,2.91-37.62,2.9-35.09-.06,15.46-.93,20.56-4.15,34.26-1.61,6.86-2.12,10.7-5.58,16.15.69-3.15-1.61-5.22-4.59-6.43-7-2.88-14.31-1.1-16.47-.73a30.13,30.13,0,0,1-6.91.13c12.57-13.46,17.27-16.77,24.63-31.21a17.65,17.65,0,0,0,6.42-8.42c3.53-9.08-2.54-12.78-2.07-10.37.2,1,3.76,9.27-3.38,16.86,1.46-3,3.13-6.53,2-9.93a3.53,3.53,0,0,0-.28-2.9c.64-2-.54-5.29-2.17-9.82.39-2.09.84-5.31-.65-6A162.37,162.37,0,0,0,222,286.65c.15,3.36.37,6.73.63,10.09-10.65.86-10.56.76-10.71,1.26-1-.86-.57,0-7-2.08a8.65,8.65,0,0,0-4.72-.4c-.22.05-.12.37.09.34,2.92-.49,5.39,1.19,8.1,1.92,1.12.31,2.15.18,3,1,1.28,1.21.68,3.85.8,5.46a.39.39,0,0,0,.77.1,7.91,7.91,0,0,0-.54-5.73c3.41-.06,6.9-.39,10.32-.62.72,9,6.61,63.22,9.1,77.06h1c-.31-6.76-1.55-13.53-2.38-20.23-2.8-22.46-7.49-68.46-7.49-68.46,12.22-4.36,53.13-19.67,53.59-20.15,3.67-.57,11.58-5.58,12.06-5.9,1.1,1.19,5.37,2.49,7.46,3.62a55.94,55.94,0,0,0,6.24,3.13c-.2,2.45,73.33-5.37,75.73-5.66,3.76-.45,3.91-3,3.11-3.93a.82.82,0,0,0,.06-.27c.47-.48,12.95-21.52,21.41-36.08,2.12.22,208.77.61,219.36.35v-.7C611.53,220.4,404.81,220.46,402.89,220.64ZM102.06,69.33a10.83,10.83,0,0,1,1-.59l.48.31Zm3.68-.44-.13-.07.47-.11Zm31,20.64s0,0,0,0Zm1.12,1a.16.16,0,0,0-.1,0,.65.65,0,0,0,.11-.34l.12.08A.85.85,0,0,1,137.9,90.51Zm1.32.48a2.61,2.61,0,0,1-.55.55l-.18-.09a1.41,1.41,0,0,0,.31-.73Zm-2.17-3.11a23.88,23.88,0,0,0,3.87.82,6.8,6.8,0,0,1-.69.82C139.18,89,138.11,88.42,137.05,87.88Zm14.66,8.73c1,.42.24,1.27.65,1.75A3.88,3.88,0,0,0,152,99,22.41,22.41,0,0,0,151.71,96.61Zm-97.6-23.3c-.69-3.23,1.65-4.65,4.14-5.78a.2.2,0,0,0,.11-.26,15.89,15.89,0,0,1,4.72,3.31c.9,1,2.32,3,2.93,2.72a30.07,30.07,0,0,0-1,7.61c-.25-.9-1.79-2.6-6.58-4.11C56.32,76.12,54.76,76.36,54.11,73.31ZM51.4,81.58c0-3.46,3.82-4.93,3.82-5a19.69,19.69,0,0,0,2.47,1.1c5.55,2.46,7,4.39,7.36,3.66a42.81,42.81,0,0,0,.89,8.34c-2.77-2.08-6.51-1.78-13.12-3.49C52.85,84.59,51.38,83.3,51.4,81.58ZM54.1,98c-9.4-2-8.25-11.18-3.53-11a12.93,12.93,0,0,1,2.85.71c4.11,1.14,8.29,1,12.76,3,.64,2.58,1.22,3.26.71.35.33.17.41-.06.3-.2s-.28-.3-.42-.44a17.81,17.81,0,0,1-.49-3.32,10.42,10.42,0,0,0,2.38,5.78c-.12.06-1.55,4.5-1.6,4.64-5.18-.32-13.15-.54-8.05.32a3.86,3.86,0,0,1-.85,1.73.38.38,0,0,0,.45.59,10.68,10.68,0,0,1,1.27-.47.08.08,0,0,0,0-.16h-.58A2.35,2.35,0,0,0,59.7,98c2.29.36,4.61.6,6.93.8-.45,1.22-.9,2.37-1.37,3.46a17.07,17.07,0,0,0-2.57,0c1.15-.91.54-4.22-.24-3.63a1.82,1.82,0,0,1-2.54-.24c-.07-.09-.23,0-.16.1a2.45,2.45,0,0,0,2.46,1c-.08,2.17-.26,2.58.11,2.8q-1.55.12-3.09.36a.53.53,0,0,0,.06-.79C57.4,100.11,58.78,99,54.1,98Zm-5.47,14.45c-2.26-1.19-1.49-3.9,0-5.32,2.11-2,6.06-2.86,9.82-3.47a.19.19,0,0,0,.11.23c1.62.7,1.55,1.12,2.22,2s1-1.68-1.35-2.33c1.86-.28,3.74-.49,5.62-.73a47.14,47.14,0,0,1-5,9C57.23,110,51.94,114.2,48.63,112.45Zm1.84,9.64a42.62,42.62,0,0,1-4.73-1.22,21.17,21.17,0,0,1,5.53.46Zm54,21.52c1.53.39,3.31-1.14,3.07-1.63a3.4,3.4,0,0,0,.45,0,.29.29,0,0,0,.21-.44c3.19,1.6,10.37,2.79,16.21,2.43-.88,2-1.51,6.19-2.9,9.31-.82,1.84-2.48,4.16-2.69,6.3a20.77,20.77,0,0,0-3.85-3.66c.94-.72,1.31-2.52,1.6-3.46,2-6.57,1.11-7.59.85-6.8-1.55,4.9-2.12,9.4-3.12,9.6-.27-3.6-.11-7.16-.3-10.75,0-.26-.41-.34-.47-.06a37.07,37.07,0,0,0-.49,9.32,3.16,3.16,0,0,0-.73-.5c-.45-.86-.76-1.79-1.15-2.69-.07-.17-.34-.08-.34.09a20.55,20.55,0,0,0-4.11-4.89.28.28,0,0,0-.4.4c1.81,2,3.27,4.17,4.91,6.27a11,11,0,0,0,.53,1.32c-3.07-1.85-6.66-3.6-10.48-5.52C102.48,147.26,104.48,145.18,104.5,143.61Zm-10.91,13c.55-.79-7.23-8.84-18.84-16.68-2.91-2-6.75-3.94-6.64-8a.1.1,0,0,0,0-.08c5.25,1.35,16,7,21.49,10.59-11.12-5.26,5.4,3.59,16.22,9.36,13,6.9,12.41,9.45,17.31,16.84C115.64,159,107.91,155.71,93.59,156.64Zm122.24,68.72c11.09.07,103.35-2.77,112.93-2.81-.27.48-5.72,10.1-5.7,10.87-.45.19-.12.54.26.83-1-.46-2.95-1.61-2.91-1a127.9,127.9,0,0,0-13.76,1.8c-.8-1.32-4.7-6.35-6.89-6.75-1.91-.36-4.15.1-6.14.35a.59.59,0,0,0-.12-.69c-2.56-2.58-6.41-2.19-9.7-1.69-13.6,2-11.55,4.31-17.77,8.16-9.67,6-9.11,7.82-14.18,10.84-11.67-1.12-20.17,2.94-33.48,1.77C218.36,245.37,216.26,227.45,215.83,225.36ZM107.24,268.5c.11-.34.23-.66.36-1,.14.19.29.38.44.56C107.78,268.23,107.51,268.37,107.24,268.5ZM199,300.72c3.39,12.21,1.2,6.6-4.51,13.21C197.08,310.13,198.3,305.16,199,300.72Zm89.55-41.38c-1.38,1.13-3.06,1.61-4.54,2.57-4.61,3-5.87,2.56-8.13,3.57-5.34,1.32-61.08,25.68-89.55,28.51-3.26.33-6.6.16-9.88.32,4.57-1.26,9.59-2.29,14.58-3.64.31-.08.18-.53-.14-.48-26.61,4.75-20.66,6.95-38.65-.37a.28.28,0,0,0-.24-.1A285.48,285.48,0,0,1,114.41,271c.28-.19,0-.63-.32-.58l-.49.08a34.47,34.47,0,0,1-3.4-2.42.86.86,0,0,0-1-.7,12.6,12.6,0,0,0-1.2-.75c2.6-4.93,6.93-7,23.21-18.2,9.53-6.54,18.66-14.24,29.78-17.89a88.74,88.74,0,0,0,8.09,8.48c9.94,9.45,4.09,2.72,33.07,7.17,32.88,5.05,25.07-.9,49-.11.15.14.33.06.54,0,.37,0,.79.11.87-.23,2.53-.88,4.47-3.18,6.24-5.06,2.67-2.83,6-4.64,9.17-6.9,4-2.85,3.12-4.06,10.58-6,4.37-1.13,10.58-3.11,13.93.9-2.33.17-4.8,0-7,.83-.58.22-.24,1,4.75.17,2.09-.35,4.23-.48,6.33-.71s3.67-.93,5.7,1.54a7,7,0,0,1,.13.9c0,.34-.15.71,0,1s.57,0,.45-1.19a40.21,40.21,0,0,1,3.44,4.32c-2.12-1.47-2.87-1.09-5.58-.82-3,.29-6.1,0-9,.85a.46.46,0,0,0,.12.89,24.15,24.15,0,0,0,5.43-.81c6.17-1.29,7-1.69,9.93,1.08a.17.17,0,0,0-.2.19c.64,2.58-.61,2.24-1.07,3a.19.19,0,0,0,.16.28c.8.09,2.12-2.22,1.21-3.41,3.45,3.27,4.63,4.42,5.07,8.47-2.09-.31-4.22-.52-6.29-1,.08-.29-1-1.28-1.31-1.47a.49.49,0,0,0-.59.08c-1.67,1.6-5.53.12-8.55,1.13-.32.11-.38.64,0,.72,3.55.74,7.14-1.27,10.67-.13a29.29,29.29,0,0,0,9.3,1.58c1,.51,2,1,3.05,1.48a2.06,2.06,0,0,1,.56,1.5,24.92,24.92,0,0,0-2.74,0c-.77-.07,1.4.77,2.64.43a1.43,1.43,0,0,1-.35.5.09.09,0,0,0,.11.15,1,1,0,0,0,.24-.15c-.18.35.43.61,2.68,1.82-.48.06-4.29.61-5.11,1.19a19.89,19.89,0,0,0-2.15-.89,14.08,14.08,0,0,0,4-1.66.11.11,0,0,0-.11-.2c-3.63,2-7.63,1.69-11.63,1.8-4.17.11-3.95,1.66-9.46,1.92.23-.38-.09-.52-.25-.36a11.37,11.37,0,0,1-5.3,2.89c.05-.11.11-.22.16-.34s-.17-.49-.37-.28A29.87,29.87,0,0,1,288.59,259.34Zm22.31-21.68a5.91,5.91,0,0,0-1.33-.08.23.23,0,0,0,0,.46,6.49,6.49,0,0,0,1.46-.11.13.13,0,0,0,.08-.17c1.23.56,3.06,1.37,5.73,2.59a9.26,9.26,0,0,0-2.92.48c-.47.41,2.81.16,3.66-.14q4,1.8,8,3.57c-1.48,0-3.17.84-2.51,1,.45.13.93-.21,1.44-.33.25-.06,1.61-.17,1.68-.42l5.08,2.24a4.44,4.44,0,0,0-2.33,1.3l-2.56-1.2a.38.38,0,0,0,0-.33c1-.26,2.06-.07,3-.36a.11.11,0,0,0,0-.22c-1.09-.11-2.21.38-3.29.18-.23,0-.38.09-.28.47l-5.17-2.47c.39,0,.8-.17,1.16-.22a5.62,5.62,0,0,0,1.59-.25c.18-.08.09-.3,0-.35-.68-.28-3.2,0-3.29.54l-2.57-1.19c.95-.11,2-.67,1.39-.74-.43-.05-2,0-2.15.39-.23-.1-4.94-2.21-5.19-2.16l-.42-.49a8.3,8.3,0,0,0,1.73-.25.15.15,0,0,0,0-.29,7.58,7.58,0,0,0-1.92.29,27.47,27.47,0,0,0-3.56-3.07,1.05,1.05,0,0,0-.1-.28,3.6,3.6,0,0,0,1.61.12C308.55,236.5,308.62,236.62,310.9,237.66Zm41.4,12.93q3.17,1.42,6.33,2.81a3.82,3.82,0,0,0-.91,0,.33.33,0,1,0,.09.66c.32,0,1,0,1.13-.36.05-.1,0-.18-.09-.25q3.07,1.35,6.19,2.62c-.84.05-1.68.15-2.52.28-.3-.18-7.71-3.44-8-3.58,1.41.24,2.39-.73.72-.59-.48,0-1.3.12-.87.52l-2.88-1.26s0,0,0-.08c0-.48.19-.64.7-.41C352.38,251.07,352.51,250.86,352.3,250.59Zm-23.64,6-1-.56c1.73-.24,1.85-.44-.44-.25-.11-.06-.19,0-.23,0-2.48.21-2.92.13-3.67.42-.1,0-.14.23,0,.25.86.13,1.37-.06,3.74-.36l.83.63c-3.42.76-2.94,1,.55.42.74.55,1.49,1.09,2.27,1.59l-2.14.5c-2-1.06-4.14-2-6.19-3-1.74-.82-3.42-1.86-5.16-2.74a41,41,0,0,0,5.27-1.08c2.68,1.39,3.94,1.88,7.78,3.91A13.67,13.67,0,0,0,328.66,256.56Zm2.16,0c1,.55,2.07,1.11,3.11,1.65a18.41,18.41,0,0,0-2.2.29,26.81,26.81,0,0,0-2.37-1.55A13.59,13.59,0,0,0,330.82,256.58Zm.64,2.57c1.73,1,2.53,1.19.87-.16a15.41,15.41,0,0,0,2-.54c1,.55,2.09,1.09,3.15,1.61a45,45,0,0,0-6,.79c-.29-.23-2-1.18-2.35-1.36C329.89,259.39,330.68,259.28,331.46,259.15Zm-3-4.46c-1.39-.72-2.77-1.48-4.17-2.22,4-.36,3.94-1.55-.47-.25l-.49-.26a34.58,34.58,0,0,0-4-1.85,1.64,1.64,0,0,0,.27-1.9c3.67,1.65,5.35,2.24,10.63,4.61a24.1,24.1,0,0,0-3,.64c-.21.09-.2.45.06.44a11.76,11.76,0,0,0,2.27-.48l1.29-.31q6.75,3,13.44,6.18c-1.56.2-4.26.54-5.83.69C338.42,259.57,332.28,256.71,328.41,254.69Zm14.94,3.39c.11-.1.2-.24.12-.36,1.79-.4-1.24-.86-1.18-.11l-3.23-1.46a.59.59,0,0,0-.4-.47l0,0a11.18,11.18,0,0,0,3.27-.38.15.15,0,0,0,0-.3,12.63,12.63,0,0,0-3.51.41c-.22,0-.06.24,0,.41v.06c-1.3-.58-2.59-1.18-3.89-1.77.54,0,.44-.26.06-.46s-.42.15-.36.33l-2.24-1a.27.27,0,0,0,0-.23c4.75-.57,5.75-1.06-.33-.47-.19,0-.29.14-.22.4h-.08l-2.67-1.22c.15-.17,0-.28-.18-.42a7.32,7.32,0,0,0,2.35-.15c.13,0,.15-.27,0-.3-.51-.1-3.21-.05-2.9.37l.19.24-2.74-1.32a1,1,0,0,0-.17-.29c1.65-.31,1.86-.29,2.22-.53.11-.08.11-.28,0-.31a2.73,2.73,0,0,0-1.2.13c-1.29.29-1.71.23-1.63.6q-1.63-.81-3.27-1.59a1.25,1.25,0,0,0-.11-.31,5.05,5.05,0,0,1,2.09-.28c.52,0-.46-.74-2.56-.12a.28.28,0,0,0-.2.34l-2-.91a.75.75,0,0,0-.1-.2c.74-.18,2.46-.07,3.57-.3.12,0,.08-.19,0-.2a14.34,14.34,0,0,0-1.85.05,6.6,6.6,0,0,1-2.08,0,.28.28,0,0,0-.36.26c-1-.44-2-.86-3.08-1.24a.09.09,0,0,0,0-.05c3.49.07,4.28-.45-.26-.55-.23,0-.27.2-.27.41-1-.35-.59-.07-.76-1.09a1.32,1.32,0,0,0,.07-.49c2.31-.26.85,0-.27-.31a6.89,6.89,0,0,0-.88-1.73c5.58,2.89,5.74,2.61,34.2,15.67-3.06.47-1.63,1.48,1.11.49a.3.3,0,0,0-.07-.58.28.28,0,0,0-.14-.1.8.8,0,0,0-.52-.72c3.38-.56,4.84-1.43-.78-.39a.26.26,0,0,0-.1.46l-2.2-1c1.55-.41-.14-.53,4.19-.71a.11.11,0,0,0,.11-.07c2.54,1.14,5.08,2.28,7.61,3.44-5.43.87-7,1.1-10.33,1.54a.33.33,0,0,0-.19-.26ZM314.41,245.7l-.22,0-1-.19a1.83,1.83,0,0,0,.12-.46Zm19.6-1.25a16.21,16.21,0,0,0-1.71.15,8.35,8.35,0,0,1-2.16.26c-.22,0-.32.1-.2.42l-2.55-1.15a.61.61,0,0,0,.07-.1,8,8,0,0,0,1.1-.12.15.15,0,0,0,0-.29c-.4-.11-.84,0-1.24-.11-.22,0-.44.13-.32.45l-5.61-2.52c.14,0,3.23-.79,3.36-.84s.11-.23,0-.23a10.25,10.25,0,0,0-1.91.29c-.92.18-2.07.14-2.12.47L318.12,240c0-.17-.07-.34-.11-.51s1.58.08,2.17,0c.07,0,.09-.12,0-.13-.69-.1-2.14-.11-2.31-.19-.35-.17-.24.27-.16.61l-2.84-1.25c.23-.12,3.74-.88,3.75-1.11,5.65,2.6,11.38,5.05,17.08,7.56.08.12.15.11.26.11,1.84.82,4.14,1.83,8.44,3.79a.19.19,0,0,0,.27.13l6.76,3.1a19.23,19.23,0,0,0-3.94.5.31.31,0,0,0-.22.38.76.76,0,0,1,0,.11l-2.44-1.09a1.66,1.66,0,0,0-.28-.49,15.36,15.36,0,0,0,4.11-.32c.17,0,.12-.28,0-.29-1.7-.12-4.84,0-4.64.46a2,2,0,0,0,.17.33L341,250.29c.34,0,.19-.36-.07-.61a13.54,13.54,0,0,0,2.7-.32.21.21,0,0,0-.06-.41c-1.26-.07-2.49.42-3.33.35-.26,0-.42.24.05.67l-3.05-1.39c.22-.22-.1-.53-.36-.72,0-.18.39-.08.63-.08a8.93,8.93,0,0,0,2.9-.14c.16-.06.19-.32,0-.36-.52-.12-4.06.12-3.79.48-.09.08,0,.47.08.58l-2.23-1a2,2,0,0,0-.25-.59.36.36,0,0,1,.41-.18,10.33,10.33,0,0,0,2.67-.3.15.15,0,0,0,0-.3,5.34,5.34,0,0,0-1.49.13c-.56.09-1.45.12-1.74.43-.24-.19-.61,0-.36.44l-.11-.05c.15-.28-.37-.29-.69-.31l-2.34-1.06a2.53,2.53,0,0,0-.12-.36c.15-.05,2.47-.26,3.66-.54C334.14,244.61,334.12,244.44,334,244.45Zm9.41,7.74c-.42-.05-3.47-.13-3.88.16a.79.79,0,0,0-.28.51l-2.49-1.16a.67.67,0,0,0-.07-.34,17,17,0,0,0,2.82-.21.16.16,0,0,0,0-.3c-.92-.19-2.39.33-3.1.21a.19.19,0,0,0-.23.13.7.7,0,0,0,0,.24l-2.66-1.23c.25,0,3.72-.58,3.67-.83q5,2.2,10.07,4.44c-.95-.13-3.56.07-4.11.85L340,253.19c.29-.66,2.85-.54,3.49-.67C343.66,252.48,343.59,252.21,343.42,252.19ZM337,249.3c-.47,0-3.95.3-3.75.78l-1.61-.74c.1,0,1-.28,1.32-.29a5.4,5.4,0,0,0,1.06,0,.17.17,0,0,0,.08-.28c-.77-.74-3.17-.2-2.67.43l-1.94-.9a4.59,4.59,0,0,1,2.58-1.21Zm14.45,5.7a.55.55,0,0,0,0-.31c1-.27,2.28,0,4.11-.39.12,0,.08-.2,0-.21-2.07-.12-3.28.41-4.33.17-.29-.06-.34.2-.35.49l-3.1-1.39,0-.11c.48-.05,4-.33,4.21-.81,3.06,1.4,6.11,2.8,9.18,4.17-1.84.34-2.12.43-4.28.78Zm-.47-3.73L348.15,250c.09,0,.84-.2,1-.24a.07.07,0,0,0,0-.14c-.1,0-1,0-1.05-.06a.28.28,0,0,0-.42.23L345,248.64l.09-.09c.17-.14.58-.3.43-.45a.7.7,0,0,0-1,.31l-2.47-1.1a3.85,3.85,0,0,0,1.22-.26c.76-.34-1.7-.3-1.81,0l-2.6-1.17c.84-.16,1.07-.16,1.32-.33a.14.14,0,0,0,0-.24c-.29-.07-.43,0-1.88.3l-1.36-.62c1.48-.48.42-.85-.83-.37l-1.73-.8c2.1-.74-.4-.59-.25-.12l-2.5-1.15c1.12-.23,1.22-.54,1-.57-.39,0-1.38,0-1.61.3l-1.9-.87c.82-.34.65-.81-.56-.26l-1.77-.82c.72-.08.85-.44.61-.52a1.42,1.42,0,0,0-1.13.29l-1.43-.66c.23-.13.76-.25.61-.46a.72.72,0,0,0-1.21.19l-1.71-.77c1-.19.71-.84-.61-.5a.24.24,0,0,0-.17.15c-.36-.16-.71-.33-1.07-.48,1-.55-.22-.76-.81-.36l-1.25-.56c1.37-.22-.63-1-.71-.3l-2-.86,1.75-.13s17,7.31,34.13,15A.79.79,0,0,0,351,251.27Zm-32.54-13.88c-.48,0-3.72.48-4,1q-2.6-1.12-5.2-2.22s1.17-.15,5.46-.57C314.77,235.7,318.32,237.33,318.45,237.39ZM305,244.19c-.36-.08-.7-.14-1-.19A2.22,2.22,0,0,1,305,244.19Zm75.24,12.15-5.41-2.07a2,2,0,0,0-.31-.26.55.55,0,0,0-.26-.37c.05-.24-.09-.53-.34-.5-2.14-.93-34.66-15.77-45-17.85-5.63-1.13,27,9.39,44.52,18-3.32,1.19-5.87.22-7.31.65a.08.08,0,0,0,0,.14c1.78,1.25,4.79.49,7,0l0,.05c-.21.63.58.9,1.06.87a8.09,8.09,0,0,0,2.06,1c-95.58,14.54-88.1,12.83.6.9l.09,0c.4,0,.85,0,1.28.06.46.22.92.44,1.4.63a1.64,1.64,0,0,1,.24.41c.94,2.23-2.85,2.52-5.21,2.71,0,0-62.45,7.26-71.94,6.14a60.67,60.67,0,0,0-7.2-3.86c-2.06-1.05-3.75-2.61-5.91-3.47a8.3,8.3,0,0,0,1.51-1.66c.69.44,4.45-1.58,5.53-2.77,1.26.76,5.55-1.46,11.66-1.92a41.83,41.83,0,0,0,5.67-.68c2.64,2,6,3.15,8.89,4.74,8.48,4.65,8.62,4.46,8.66,3.94,5.65.19,11.68-1.11,17.26-1.85,1.19-.16,16.72-1.73,16.7-2.95l.46.19c.27.11.47-.36.2-.49-1.25-.59-48.1-20.84-48.1-20.84.1-.44-.23-.21-3,0a.35.35,0,0,0-.43,0c-5.57.41-6.1.29-7.44.72a.2.2,0,0,0-.11.07c-.16-.31-.39-.7-.45-.79a123.41,123.41,0,0,0,14-1.62c1,.72,5.4,2.72,4.54,1.79a2.53,2.53,0,0,0,.37.18l-.89.18c-1.67.33-1,1.64-.52,1.26,3.65,1.82,47.71,20,41.42,16.83s-40.74-17.11-41.21-17.27c.46-.76,2.05-.5,3.77-1.12.14-.05.13-.29,0-.28a10.63,10.63,0,0,0-1.59.2c-.15-.59-.84-.84-1.33-1.1a14.63,14.63,0,0,0-1.37-.69c2.56-4.62,4.75-9.46,7.33-14.09,11.59-20.8,25.73-41.22,25.73-41.22,3.86-.27,44.36,9.88,61.9,13.37C405.84,213.11,392.74,234.54,380.26,256.34Z"/><path class="cls-8" d="M218,311.16a.37.37,0,0,0,.71.2q3.13-.71,3,1.72c.51,12.95-6.87,40.94-7.53,43.68a.34.34,0,0,0,.66.18c6.7-17.46,8.33-43.15,7.53-45.35C221.63,309.71,218.64,308.75,218,311.16Z"/><path class="cls-8" d="M221.33,367.9a53.71,53.71,0,0,1-5.43,7.1h1.73a50.16,50.16,0,0,0,4.48-6.64A.45.45,0,0,0,221.33,367.9Z"/><path class="cls-8" d="M183.75,367.94a103.59,103.59,0,0,0-8.28,7.06H178c2.61-2.33,5.18-4.78,5.87-5.54a.5.5,0,0,0,.94-.31C184.66,368.67,184.47,367.46,183.75,367.94Z"/><path class="cls-8" d="M422.49,293.45c-4.61-4.12-25.28-17.41-28.67-19.56.56-.95-15.19.22-25.93.91-9,.58-82.44,3.68-77.69,4.24l.23.31c.91,1.13,9,9.47,10.22,10.53-5.12.51-10.21,1.31-15.33,1.72a.33.33,0,1,0,.09.65c5.26-.89,25.85-2.93,49.76-3.5a.13.13,0,0,0-.06.16c.62,2-.29,2-.42,2.58-14.54,2.05-17.75,1.66-27.24,2.54-.32-.52-1-.33-1,.1l-1.48.15c1.8-3.08-.23-4.74-.17-3.67a5.75,5.75,0,0,1-.09,2.15c-.19.58-.9,1-.73,1.61a.53.53,0,0,0,.85.11,8.11,8.11,0,0,0,1.66.12v.08c-13.36,1.1-21.88,2.19-20.83-2,.07-.29-.36-.5-.49-.21-1.49,3.06,2.62,3.9,4.74,3.84,18.64-.51,18.54,0,17.87-1.71,7.81,0,41.87-3.46,41.5-5.19,2.5.6,3.16-1.18,1.08-1.2a3.71,3.71,0,0,0-1.2.09c.16-1-25.56-.55-47.59,1.47-1.32-1.54-9.59-9.57-11.15-10.73l.35,0c4.5.22,101.94-5,102.43-5,0,.49,9.18,6.2,15,10.06,4.57,3,8.92,6.41,13.51,9.39-24.11,2.16-84.87,6.2-108.46,8.54.08-.63-12.28-13.87-.43.11-1,1.06,108.93-7.65,109.88-7.77C423.24,294.33,423.52,293.36,422.49,293.45Zm-73.83-4.81c-.18.15-.16.31,0,.42-3.06.44-6.07,1.14-9.12,1.69a1.26,1.26,0,0,0,0-1,.15.15,0,0,0-.29.08,1.24,1.24,0,0,1-.34,1l-1.09.18a1.87,1.87,0,0,0,.18-1.59.16.16,0,0,0-.31.09,1.73,1.73,0,0,1-.68,1.62l-.47.07c.8-1,.5-2.06,0-1.78s-.27.8-.4,1.13a2.08,2.08,0,0,1-.53.78l-.26,0a2,2,0,0,0,0-2.63C339.8,288.64,344.23,288.59,348.66,288.64Z"/><path class="cls-8" d="M390,276c0-.47-.5-.36-1.6-.39-.55,0-.54.82,0,.86C390.37,276.57,390.57,276.19,390,276Z"/><path class="cls-8" d="M391.22,276.45l-2.2.26c-.55.07-.77.89-.14,1s1.09.19,1.67.28a.58.58,0,0,0,.06.75c.07.07,5.45,4.66,5.76,4.88s.57-.22.36-.46c-1.25-1.47-1.37-1.26-4.56-4.55l.32-.11a.33.33,0,0,0-.08-.65,5,5,0,0,1-1.47-.41l.41-.06C391.89,277.33,391.77,276.39,391.22,276.45Z"/><path class="cls-8" d="M383,277.14c-.47-1.75-2.95.18-1.27,1.18,1.19.71,2.34-.73,4.47,2.32,1.9,2.7,3.84.88,2.73.81-1.87-.12-2.31-2.21-3.66-3.14-.82-.57-2-.31-2.71-.83C382.81,277.63,383.09,277.37,383,277.14Z"/><path class="cls-8" d="M392,283.46c-.23-.28-.63.12-.4.4,3.64,4.53,2.7,3,4.8,4.7,1.46,1.2,2.72,2.63,4.52,3.36.39.15.53-.41.26-.62-1.75-1.34-3.94-2.06-5.44-3.75C394.55,286.16,393.19,285,392,283.46Z"/><path class="cls-8" d="M375.79,277.64c-.34-.14-.64.33-.3.51.65.34,1.31.65,2,1-.1.09-.19.19-.3.28-.51.48,1.34,1,1.91,1.1a.22.22,0,0,0,.17-.4,8,8,0,0,0-1.33-.62C378.52,278.9,378.76,278.91,375.79,277.64Z"/><path class="cls-8" d="M380.21,281.24a3,3,0,0,0,3.27,2.5c.18,0,.16-.3,0-.34a3.12,3.12,0,0,1-2.28-2.3C381,280.6,380.16,280.63,380.21,281.24Z"/><path class="cls-8" d="M387,286.7a35.87,35.87,0,0,1-2.81-2.28.31.31,0,1,0-.38.5,35.79,35.79,0,0,1,2.94,2.11,11.29,11.29,0,0,0,2.34,1.74.18.18,0,0,0,.21-.28A11.53,11.53,0,0,0,387,286.7Z"/><path class="cls-8" d="M371.51,279.6c.05,1.42,1.32,1.38,1.38.74a.16.16,0,0,0-.21-.16c-.65.1-.56-.58-.62-1-.11-.75-.55-1-.77-1-.1-1-3.26.73-.21.25a.22.22,0,0,0,.13.21C371.57,278.83,371.5,279.27,371.51,279.6Z"/><path class="cls-8" d="M373.16,281.64a18.51,18.51,0,0,0,2.93,3.19c.19.14.4-.13.3-.31a18.38,18.38,0,0,0-2.75-3.35C373.34,280.85,372.89,281.32,373.16,281.64Z"/><path class="cls-8" d="M377.54,286.16a22.9,22.9,0,0,0,2.34,2.28c.14.12.42,0,.29-.23a25.82,25.82,0,0,0-2.2-2.48C377.7,285.45,377.26,285.88,377.54,286.16Z"/><path class="cls-8" d="M363.57,277.93c-.37-.21-.65.32-.33.56C365.88,280.49,366.54,279.67,363.57,277.93Z"/><path class="cls-8" d="M365.47,280.25c7,5.73,7.74,5.18.58-.58C365.64,279.35,365.07,279.91,365.47,280.25Z"/><path class="cls-8" d="M384.51,327.82c-6.08-7.52-8.12-17.89-14.8-24.89.09-.22,0-.4-.4-.42-.14-.14-.26-.12-.34,0-9.73-.43-33.2.51-99,1-10.57.08-9.35.11-8.19,24.77-.51.37-.19.82.06,1.29.22,4.54,0,6.08,1.35,5.59,14.34,2.59,61.35-1.57,114.82-1.14a11.17,11.17,0,0,0,4.87-.58c1.94-.93,2.81-3.1,1.66-4.71A.67.67,0,0,0,384.51,327.82Zm-2.34,4.23c-.91.59-3.16.45-4.18.43-38.5-.44-94.52,2.75-114.38,1.89,0-.6-.06-1.19-.09-1.79.63.51,110.52-1.13,119.41-3.34-.05.4-.09.79-.14,1.19C383.1,331.34,382.89,331.88,382.17,332.05ZM265,331.2a3.32,3.32,0,0,1-1.58-1.58c-1.38-26.21-5.19-25.14,10.84-25.34,93.15-1.13,85.55-.59,95-1.16,6.93,10.61,8.49,17.58,13.75,24.77C376.12,329.55,265.43,331.36,265,331.2Z"/><path class="cls-8" d="M373.35,325.37c-3.88-10.43-6-20.36-10.21-19.93-.38,0,1.13,1.12,1.39,1.34,5,4.29,5.11,13.93,8.58,18.87-1.56,1.76-6.31,1-8.4,1.12-.15,0-90.93,2.57-91,2.67.47-3.82-.06-8-.24-11.86s-.15-8.14-1.54-11.78c2.22.26,103.53-.52,91.63-1.08-.57,0-91.83.25-91.95.82a.1.1,0,0,0,0,.11c.37,4.14,1.25,8.17,1.34,12.37.08,3.78-.49,8,.31,11.74,0,.21.4.23.45,0,.13.28,94.78-2.61,95.09-2.61,1.43,0,3.69.19,4.7-1.05.05.07.18.05.11-.14a1.75,1.75,0,0,0,.16-.27A.26.26,0,0,0,373.35,325.37Z"/><path class="cls-8" d="M374.76,318.33c1.72-3.5-1.55-3.89-1.91-3.21a.66.66,0,0,0,.39,1c.7.18,1.05.16.44,1.52-.62-.05-.74-1-.76-1.56a.43.43,0,0,0-.79-.21C370.73,318,374,319.89,374.76,318.33Z"/><path class="cls-8" d="M267.33,315.05c-1.56,9.13,2.36,9.15.8,0A.42.42,0,0,0,267.33,315.05Z"/><path class="cls-8" d="M140.66,92c-3.21,1.46-3.58,7.15-.78,9.14,3.13,2.23,8.67.29,9.53-3.53a0,0,0,0,0,0,0c-1.1.83-1.83,2-3,2.76-1.9,1.22-4.35,1.53-6.08-.12C137,97.09,141.85,91.42,140.66,92Z"/><path class="cls-8" d="M132.64,91.48c2.52,2.89,5.32,2.31,4.68,1.94-1.08-.61-2-.19-4.47-2.15C132.7,91.16,132.51,91.34,132.64,91.48Z"/><path class="cls-8" d="M137.84,92.43a.16.16,0,0,0,0,.31.39.39,0,0,1,.26.21c.1.22.48.07.39-.16A.53.53,0,0,0,137.84,92.43Z"/><path class="cls-8" d="M137.39,92.45c-.17-.19-.47.11-.28.28a1.26,1.26,0,0,0,.43.29c.08,0,.18-.06.15-.15A1.54,1.54,0,0,0,137.39,92.45Z"/><path class="cls-8" d="M131.29,87.36a.31.31,0,1,0,0,.6C131.86,87.85,131.87,87.47,131.29,87.36Z"/><path class="cls-8" d="M143.51,87a2.52,2.52,0,0,1-.9,1.25c-.05,0,0,.14,0,.13a1.29,1.29,0,0,0,1-1.35C143.7,86.92,143.53,86.89,143.51,87Z"/><path class="cls-8" d="M136,78.94c.21-.06.12-.4-.09-.33a30.2,30.2,0,0,1-6.27,1C128.8,79.56,130.67,80.66,136,78.94Z"/><path class="cls-8" d="M149.82,86.53a4.1,4.1,0,0,0-.82-.74,3.18,3.18,0,0,0-1.31-1.57c-.2-.13-.45.18-.27.33-.67-.66-1.68-1.58-1.87-1.33-.72-.67-1.47-1.31-2.2-2-.17-.15-.43.1-.26.26l.95.92c-.29-.18-.27-.19-.68-.43-.06-.16-.17-.17-.33-.18A21.49,21.49,0,0,0,140,80.56a5.39,5.39,0,0,0,1.15-.29.25.25,0,0,0-.07-.49l-3.55-.2c.1-.46-2.12-.24-2.71-.13-.34.06-.24.56.07.58l3.5.15a.26.26,0,0,0,.2.38,10.51,10.51,0,0,1,3.63,1.16,35.64,35.64,0,0,0-4.8-.55c-.19,0-.21.26,0,.33a21,21,0,0,0,5.93.79,8.13,8.13,0,0,1,2.8,2.43c-.54-.18-1.09-.35-1.64-.51l-.43-.34h.23c.3,0,.28-.4,0-.44l-.93-.12-.49-.42a.1.1,0,0,0-.14.14l.21.22c-.48-.06-2.68-.35-1.74-.41a.14.14,0,0,0,0-.27c-.48-.15-.92,0-.88.53,0,.3.8.43,1.1.48-.24.42.36.41,3.09,1.2a25.92,25.92,0,0,0,2.26,1.75c-.08.25.21.39.39.29,1,.68,1.5,0,.05-.82a10.47,10.47,0,0,0-1.36-.85l.92.27a3.36,3.36,0,0,0,.41.34.17.17,0,0,0,.25-.17.18.18,0,0,0,.15-.15c.48.56.9,1.17,1.41,1.69.17.17.5-.06.35-.27a3.45,3.45,0,0,0-.25-.41,5.32,5.32,0,0,1,.47.36A.19.19,0,0,0,149.82,86.53Zm-6.51-2.64h.22l.1.1Zm3.86,1.18-.21-.28.24.24Zm.3-.47a6.75,6.75,0,0,1,.53.54Z"/><path class="cls-8" d="M158.7,89.48c-.24-.13-.51.19-.3.38.4.39,1.14,1.07,1.3.53C159.79,90.09,159,89.63,158.7,89.48Z"/><path class="cls-8" d="M159.85,89.69c.55-2.41-.06-5.12-.29-7.56-1.7-17.73-1.5-19.83-3.19-23.77-.09-.2-.43-.06-.36.15,1.69,5,1.79,10.53,2.2,15.75s1.12,10.24,1.12,15.36A.27.27,0,0,0,159.85,89.69Z"/><path class="cls-8" d="M144.09,100.36c.32,0,.43-.51.08-.6l-.34-.07a8.7,8.7,0,0,1,1.07-1.87c.07.07.16.12.4.06-.12.4.54.68.72.28a8.41,8.41,0,0,0,.31-1,.32.32,0,0,0-.56-.29.35.35,0,0,0-.13,0,3.1,3.1,0,0,1,3-.84c.78.14-.72-1.58-2.86.11a13.35,13.35,0,0,0-2.62,3.64C143,100.09,143.19,100.43,144.09,100.36Z"/><path class="cls-8" d="M149.94,94c0-.21-.32-.21-.33,0a8.86,8.86,0,0,1-.64,2.55C148.85,97,149.83,96.42,149.94,94Z"/><path class="cls-8" d="M157.09,97.87a.15.15,0,0,0-.28-.12c-.4.59-.81,1.16-1.22,1.72a2.08,2.08,0,0,0-1.13-.69.17.17,0,0,0-.13.31,6,6,0,0,1,.94.81c-1.05,1.36-1.42,1.67-1.82,2.15a4.86,4.86,0,0,0-.86,0c-.3,0-.31.5,0,.48a9.81,9.81,0,0,1,2.35.34c.36.07,0-.53-1.11-.76A7.7,7.7,0,0,0,157.09,97.87Z"/><path class="cls-8" d="M141.52,92.77c-.24-.12-.4.27-.4.52a.67.67,0,0,0-.55.24.24.24,0,0,0,.35.34c.22-.2.56.26.68-.16.36-.07.37-.51.09-.51C143,92.22,142.93,91.28,141.52,92.77Z"/><path class="cls-8" d="M148.09,114.38c.23,0,.31-.27.18-.42-1.45-1.6-6.08-2-7.26-1.7a.19.19,0,0,0,0,.37c1.25.39,2.53.24,3.79.7A14,14,0,0,0,148.09,114.38Z"/><path class="cls-8" d="M138.83,112.27a.31.31,0,0,0,0-.53c-.72-.3-1.37-.41-1.66-1.35-.16-.53-.15-3.69,1.86-4.58.08,0,0-.15,0-.15C135.93,105.61,135.94,113.89,138.83,112.27Z"/><path class="cls-8" d="M128.83,123.57c3.41-1.15,6.64,2,10.1,2a.2.2,0,0,0,.1-.37c-1.88-1.35-3.94-1.55-6.09-2.16C127.47,121.5,128.09,123.82,128.83,123.57Z"/><path class="cls-8" d="M134.7,123c2.27.13,4.59.43,6.85.41a.17.17,0,0,0,0-.34C138.09,121.92,133.53,122.9,134.7,123Z"/><path class="cls-8" d="M132.74,126.77c-.48-.5-.91-1.07-1.38-1.59-.13-.14-.4,0-.33.19,1,2.53,3.62,3.67,3.1,2.81A9.74,9.74,0,0,0,132.74,126.77Z"/><path class="cls-8" d="M104.29,132.45c.11.2.45.06.37-.16-1-3,.12-2.49-2.43-6.63-1.61-2.62-2.31-5.7-3.49-8.52-.68-1.63.43,4.29,2.36,7.92a27.57,27.57,0,0,1,2.09,3.71A24.72,24.72,0,0,0,104.29,132.45Z"/><path class="cls-8" d="M144.91,91.66c0-.24-.28-.31-.43-.18,0,0-.6,0-1,0a.15.15,0,0,0,0,.29,5.26,5.26,0,0,0,.83,0c-.35.54-.62.67-.59,1C143.74,93.37,144.78,92.85,144.91,91.66Z"/><path class="cls-8" d="M94.42,75.23c.24,2.24,2.74-5.69,1.34-8.15s-4.27-2.6-6.5-1.52c-3.34,1.6-6.26,11-5.1,16a.12.12,0,0,0,.23,0c.11-4.54.18-8.78,2.87-12.64,1-1.38,1.67-2.55,3.55-2.69a4.2,4.2,0,0,1,3.32,1.2C96.18,69.7,94.13,72.68,94.42,75.23Z"/><path class="cls-8" d="M88.27,75.86c0,.14.1.32.26.26,1.84-.66.87-.86,4.07-1.25.39-.05.66-.61.23-.83C91.32,73.28,88.62,74,88.27,75.86Z"/><path class="cls-8" d="M88.76,80.56c1.33,1.37,3.19,6.42,4.6,5.56s-.51-2.5-.57-3.52c-.07-1.22,2.44-3.49.68-4.5-.72-.41-.51,1.14-.52,1.61-.06,1.87-.87,1-.55,4.78-.92-.75-1.56-2.38-2.2-3.19-.83-1-3.48-2.65-2.34-4.14.13-.17-.15-.39-.29-.23C86,78.69,87.48,79.25,88.76,80.56Z"/><path class="cls-8" d="M127.64,37.43c-.28-.21-.63.25-.37.48,5.22,4.87-2.78,14.55-12.26,15.74-.08,0-.09.13,0,.13a16.7,16.7,0,0,0,10.11-4.52c-.29.4-.57.8-.82,1.18C122.94,52.49,134.59,42.73,127.64,37.43Z"/><path class="cls-8" d="M125.52,41.37c0-.2-.33-.11-.3.09,1,7.16-6,7.27-3.87,7.46C125.31,49.27,126.17,44.22,125.52,41.37Z"/><path class="cls-8" d="M123.52,45.32c.3-.3-.16-.75-.47-.46A38.73,38.73,0,0,1,117.11,49C116.07,49.66,119.07,49.71,123.52,45.32Z"/><path class="cls-8" d="M128.39,47.67c2.4-1,5-4.61,2.28-6.73-.27-.2-.64.14-.38.38,2.31,2.15-.9,4.43-2.14,5.94C128,47.42,128.14,47.77,128.39,47.67Z"/><path class="cls-8" d="M85.83,24c1.25-.33,2.49-.62,3.76-.83.39-.07.29-.69-.09-.68a3.1,3.1,0,0,1-1.22-.13c3.28-.5,7.65,2,7.21.7A9.38,9.38,0,0,1,95,20.24l.21.71a.22.22,0,0,0,.42-.12c-.17-.79-.35-1.58-.52-2.37-.07-.28-.54-.3-.59,0a9.22,9.22,0,0,0,.23,4.28c-2.39-.57-5.13-1.52-7.5-.75a.33.33,0,0,0-.08.59,3.49,3.49,0,0,0,.39.19,18.14,18.14,0,0,0-1.91.43A.44.44,0,0,0,85.83,24Z"/><path class="cls-8" d="M96.49,21.85a13.79,13.79,0,0,1,2-2.76,6.52,6.52,0,0,1-.67,2.32c-.34.72,1.55.36,2.59-.41.11-.07,0-.28-.09-.23a9,9,0,0,1-1.89.47,10.29,10.29,0,0,0,.55-2.7c.06-.7-1.25.16-2.94,3.06A.25.25,0,0,0,96.49,21.85Z"/><path class="cls-8" d="M110.24,19c2.36-.39,6.32-1,8.17,1,.17.18.4,0,.31-.23-1.54-3.28-11.3-1.08-15.24.67.22-.45.44-.91.65-1.36s-.32-.63-.5-.3l-1.13,2.17C101.75,22.38,104.86,19.84,110.24,19Z"/><path class="cls-8" d="M112.27,20.82s-2.55.61-2.28,0c.36-.8,5.29-.88,7.08-.77,1.17.08-6.37-1.43-8.1,1.26a.23.23,0,0,0,.14.33c3.82.58,3.93-2.53,12.43.58-.8-.08-1.61-.12-2.4-.13a.31.31,0,0,0,0,.62,34,34,0,0,1,13,3.79c-1.1-.32-3.21-1.22-3.59-1-1.59.82.7,2.52,6.33,2.87.25,0,.28-.35.06-.42-1.18-.38-4.53-.61-5.17-1.57-.51-.74,1.24.23,1.58.36,7,2.71.29-3.12-8.75-4.36C122.67,21.85,118.37,19.43,112.27,20.82Z"/><path class="cls-8" d="M100.7,22.55c3.29.14,6.54.51,9.81.85-1.66.36-3.34.63-5,1-.38.08-.25.59.08.63,2.82.27,6,.24,8.75,1l-2.5.64c-.47.12-.3.73.11.78,4,.51,7.94.72,11.94.84a.23.23,0,0,0,0-.46c-3.3-.3-6.59-.66-9.89-1l1.6-.48a.33.33,0,0,0,0-.63,28.92,28.92,0,0,0-7.87-1.18c1.5-.36,3-.72,4.5-1s-2.33-1.49-11.54-1.31A.15.15,0,0,0,100.7,22.55Z"/><path class="cls-8" d="M116.75,24.75a.16.16,0,0,0,0,.31c3.18.09,7.62-.24,10.39,1.47C128.22,27.2,128.25,23.48,116.75,24.75Z"/><path class="cls-8" d="M117.59,29.55c-.68,1.06,5.92.48,11.95,2.25h-3.45c-3.51.05-3.1,1.13-2.63,1.23,4.39.93,8.85,2.16,13.31,2.66.36,0,.41-.52.08-.61C133,34,129,33.38,125.08,32.58c0,0,4-.06,6.45-.15a.31.31,0,0,0,.09-.6c-8.87-2.5-14.49-.77-12-2.61.5-.36,5.7,0,9.46.92a.24.24,0,0,0,.12-.46C126.7,29,119,27.34,117.59,29.55Z"/><path class="cls-8" d="M130.41,29.43c2.84.33,4.81.65,7.21,2.2-.76-.29-1.53-.57-2.28-.83-.27-.09-.46.34-.2.46a79.9,79.9,0,0,1,12.05,6.49c.14.1.29-.12.18-.23a22.16,22.16,0,0,0-6.31-4.4C134.84,26.65,128.55,29.21,130.41,29.43Z"/><path class="cls-8" d="M142.81,35.81c-.27-.2-.53.25-.27.45,9.26,7.05,11.92,6.91,4.68,2.35.78.36,1.58.69,2.41,1,.21.07.3-.26.09-.33a31.56,31.56,0,0,1-5-2.22Q143.74,36.44,142.81,35.81Z"/><path class="cls-8" d="M162.84,56.24a.25.25,0,0,0,.07-.48,72.8,72.8,0,0,0-7.37-1.3c5.19-.76,7.39-.47-2.08-2.7,1,0,2-.09,3-.12.44,0,.57-.69.11-.8-3.69-.87-7.57-1.37-11.12-2.74q3.27.07,6.53.34a.17.17,0,0,0,.2-.12l.29,0c.34,0,.36-.46.07-.57-4.32-1.61-9.32-1.66-13.08-4.53a11.69,11.69,0,0,0,3.14.64.25.25,0,0,0,.07-.49l-1-.29.85,0a.43.43,0,0,0,.22-.8c-2.7-1.61-5.89-1.93-8.69-3.25.16,0,4.94.77,5.05.64a17.17,17.17,0,0,0,2.27.09.21.21,0,0,0,.06-.41,47.09,47.09,0,0,1-12.59-4.45.37.37,0,0,0-.38.64,26.17,26.17,0,0,0,5.82,3l-1.64-.3a.29.29,0,0,0-.22.52c2.55,1.83,5.76,2.12,8.52,3.46-1.2,0-2.05,0-1.88.66-.59-.5-1,.07-.66.37,2.36,2.29,6,3.65,9.49,4.41-1.26-.08-2.53-.13-3.8-.15s.65,1.51,9.53,3.48l-2.7.16c-.39,0-.51.6-.1.7,2.39.58,4.78,1.21,7.18,1.73-4.5.64-4.8.41-4.8.91a18.61,18.61,0,0,1-1.85-1.09c.46.11.93.2,1.4.27a.15.15,0,1,0,.08-.29A30.88,30.88,0,0,1,142.73,48c-.23-.21-.57.13-.34.34a21.94,21.94,0,0,0,7.9,4.77c-.24.56,3.53,2.69,4.39,3.09-.42,0-.82,0-1.22,0a.19.19,0,0,0,0,.38q1.46.09,2.88.24a9.19,9.19,0,0,0,3.26.49c4.33.83,5.87,2.06,8.93,2.78.14,0,.28-.15.15-.26-4.71-3.76-9.26-2.47-14.81-5C156.84,55.36,159.83,56,162.84,56.24Z"/><path class="cls-8" d="M144.8,41.06c3.48,1.07,7.51,2.25,10.94,4.37a17.19,17.19,0,0,1,1.9,1.5,0,0,0,1,0-.07.07c.23.2,1,1,1.05.76.39-3.3-10.56-6.43-13.66-7.28A.3.3,0,0,0,144.8,41.06Z"/><path class="cls-8" d="M151.38,44.49a.06.06,0,1,0,0-.12l-1.12-.15c-.05,0-.07.1,0,.11Z"/><path class="cls-8" d="M153.09,45.75c3.56,1,5.73,3.16,8.22,5.75,1.28,1.32-.42-4-8.11-6.14A.2.2,0,0,0,153.09,45.75Z"/><path class="cls-8" d="M154.9,48.66c2.29,1.6,4.49,3.31,6.65,5.07a8.29,8.29,0,0,1-.75-.51c-.3-.22-.81.27-.29.64a46.16,46.16,0,0,0,6,3.73.3.3,0,0,0,.3-.52q-1.33-.8-2.67-1.62a.4.4,0,0,0,0-.61,73.23,73.23,0,0,0-9-6.69C154.88,47.94,154.6,48.45,154.9,48.66Z"/><path class="cls-8" d="M149.49,45.31c.23,0,.29-.38,0-.41a50.2,50.2,0,0,1-5.71-1,.23.23,0,0,0-.12.45A24.62,24.62,0,0,0,149.49,45.31Z"/><path class="cls-8" d="M122.22,44c4-1.56,4.32-6.77,1.64-9.69-.31-.34-.75.14-.49.49C127.66,40.3,120.12,44.81,122.22,44Z"/><path class="cls-8" d="M120.88,40.55c2-1.3,2.06-4.63.42-6.24a.21.21,0,0,0-.33.26c1.18,2,.83,3.82-.42,5.65C120.41,40.42,120.68,40.68,120.88,40.55Z"/><path class="cls-8" d="M101.26,24.88c-.29-.13-.55.29-.25.44,6.1,3.15,6.73,4.25,8.6,8.31.1.22.4.08.41-.12C110.38,29,104.63,26.35,101.26,24.88Z"/><path class="cls-8" d="M108.84,27.59a.23.23,0,0,0-.37.28c.17.4.33.79.49,1.19.08.21.41.13.34-.09s-.08-.26-.12-.39c3.63,3.59,2.64,3.75,4,6.07a.16.16,0,0,0,.29,0C114,31.92,110.62,29.1,108.84,27.59Z"/><path class="cls-8" d="M115.63,34.92c-.24-1.67-1.19-5.1-2.92-3.83-.22.16,0,.51.21.37,1.44-.87,2,3.5,2.17,4.18a.31.31,0,0,0,.56.07,2.66,2.66,0,0,1,1.25-1.14,2.38,2.38,0,0,1-.78,1.27.19.19,0,0,0,.19.32,1.59,1.59,0,0,0,1.12-2C117.28,33.7,116,34.61,115.63,34.92Z"/><path class="cls-8" d="M78,34.5C84.3,27.65,89.48,25,89.48,25a29,29,0,0,1,3.34-.8c.34-.07.25-.59-.08-.59-3.43,0-6.68,2.14-6.87,2.62C79.4,30.21,77,35.6,78,34.5Z"/><path class="cls-8" d="M95.33,26.49c-.33.18-.65.34-1,.49-.09,0-5.69,2.39-6.29,2.58A53.29,53.29,0,0,1,94.28,26c.28-.14.06-.49-.19-.45a10.65,10.65,0,0,0-2.35.59.24.24,0,0,0,0,.45c-8.14,3.92-6.39,5.21-1.57,2.79l-1,.65a.45.45,0,0,0,.34.82,45.45,45.45,0,0,0,7.57-2.69c.14-.06,0-.28-.11-.24L91.69,29.3c1.26-.85,2.55-1.64,3.85-2.45A.21.21,0,0,0,95.33,26.49Z"/><path class="cls-8" d="M97.51,26.27a16,16,0,0,1,1.64,1,5.09,5.09,0,0,0-.21,4.23.22.22,0,0,0,.41-.11c.12-1-.33-1.81.13-3.87,2.07,1.6,2.39,3,2.69,5,.18,1.27,2.73-3.26-4.38-6.78C97.47,25.65,97.2,26.1,97.51,26.27Z"/><path class="cls-8" d="M71.57,46.83c.5-.8,1-1.59,1.56-2.35,0,0,0-.08,0-.11A57.92,57.92,0,0,1,79.82,33.8c.08.19.39-.32.19-.21,5-5.72-4.61,1.59-8.63,13.16A.1.1,0,0,0,71.57,46.83Zm2-4.58c-.1.28-.83,2.07-.55,2.15a14,14,0,0,0-1.31,1.73A39.63,39.63,0,0,1,73.52,42.25Z"/><path class="cls-8" d="M76.78,44c1.62-4,4.6-7,7.35-10.18a.28.28,0,0,0-.34-.44,11,11,0,0,0-3.68,2.52c-.15.17.09.42.26.26a9.18,9.18,0,0,1,2.41-1.77c-2.65,2.67-6,5.83-6.41,9.55C76.34,44.22,76.7,44.22,76.78,44Z"/><path class="cls-8" d="M85.52,34.81c-3.69,3.45-6.38,8.21-4.94,7.67,1.77-.66,2.9-2.29,4.29-3.51A31,31,0,0,1,91,34.7c-1.75,2.27-4.34,4-5.47,6.67a.44.44,0,0,0,.69.53c1.22-1.11,5.51-4.73,6-4.69,1.14.1-.07,2.08-.26,2.49-.08.17.15.4.29.22.58-.74,2-3,.39-3.33-.6-.15-1.14.33-4.93,3.09,1.54-1.87,3.52-3.45,4.56-5.66.12-.26-.16-.65-.45-.44C89.84,35,87.85,36.23,86,37.66c-1.43,1.09-3,2.84-4.67,3.74a27.57,27.57,0,0,1,4.63-6.19C86.18,35,85.78,34.56,85.52,34.81Z"/><path class="cls-8" d="M92.9,47.86c.59,1,9.2-4,13-12.88.12-.28-.29-.54-.43-.25-4.13,8.58-9.79,10.91-12,12.81C93.52,47.12,92.49,47.15,92.9,47.86Z"/><path class="cls-8" d="M101.12,45.3c-.19.18.06.45.27.35,8-3.86,10.33-11.23,8.88-9.54s-3,3.4-4.63,5c-.19.18.09.46.28.28q1.62-1.53,3.13-3.17C107,41.15,103.86,42.87,101.12,45.3Z"/><path class="cls-8" d="M104.52,45.93l.86-.57a.12.12,0,0,0,.05-.07c1.5-1,2.92-2.25,4.32-3.41.63-.53,2.79-1.72,2.15-2.78-.26-.45-.71.21-2.48,1.82a.24.24,0,0,0,.14.41c-2,1.59-4.92,3.61-5.45,4.07C103.82,45.65,104.2,46.13,104.52,45.93Z"/><path class="cls-8" d="M116.86,41.41c.53-.29.06-1.08-.47-.8-7.75,4-9.73,7.39-8.13,6.84,2.34-.81,5.1-1.32,7.48-2.38-.9.74-1.83,1.44-2.77,2.17s2,.27,6.23-4.54c.27-.31-.18-.77-.46-.46-2.07,2.29-5.63,3.17-8.77,3.92A51.65,51.65,0,0,1,116.86,41.41Z"/><path class="cls-8" d="M95.88,42.46c-.16.16.06.46.26.33,4.32-2.89,4.89-5.95,7.39-7.51a.25.25,0,0,0-.25-.43C101.06,36.12,101.4,37.12,95.88,42.46Z"/><path class="cls-8" d="M76.73,53.53c4.7-9.42,3.83-12.08-2.44-1.05,2.4-5.61,1.55-6.3,1.26-5.74-.49,1-1,1.91-1.53,2.86a.13.13,0,1,0,.23.13c.4-.65,1.18-1.61,1.1-2.19.19,1.43-2.47,5.2-3.62,9.33a.41.41,0,0,0,.74.31c1.86-3.46,3.73-7.88,6.5-10.81-.23,1.22-.62,2.32-4.37,9.4a.16.16,0,0,0-.27,0C67.15,67.34,70,72.12,70.09,71c.41-5,.48-7.47,4.16-14.37.29,1.58,1.33-1.39,8.79-9-2.29,3.86-6.08,10.72-4.28,11a.25.25,0,0,0,.2-.46C77,57,95.2,32.43,76.73,53.53Z"/><path class="cls-8" d="M91.49,46c.34-.24,0-.79-.32-.56-8.16,5.3-8.86,11.16-7.75,9.61C85.88,51.62,88,48.45,91.49,46Z"/><path class="cls-8" d="M100.1,48.52c.15-.2-.2-.47-.36-.27C96.55,52.19,92.58,54,88,55.87,86.39,56.57,93.8,57,100.1,48.52Z"/><path class="cls-8" d="M97.52,62.18c5.48.15,9.56-1.1,9.4-1.62,1.55-.5,3.07-1.15,4.54-1.75.43-.18.26-.89-.2-.72-1.28.48-7,2.29-7.33,2.65a59.44,59.44,0,0,1-6.41.63A.41.41,0,0,0,97.52,62.18Z"/><path class="cls-8" d="M117.37,53.51c-2.61,1.31-5.65,2.46-7.94,4.29-.22.18,0,.56.28.48,2.79-.87,5.45-2.76,8-4.18A.34.34,0,0,0,117.37,53.51Z"/><path class="cls-8" d="M109.19,61.55a52.1,52.1,0,0,0,6.45-3.66.36.36,0,0,0-.37-.62,53.94,53.94,0,0,0-6.33,3.7C108.69,61.17,108.82,61.7,109.19,61.55Z"/><path class="cls-8" d="M88.86,60.94C90,60.3,90.92,59.42,92,58.73a19.17,19.17,0,0,1,2.31-1.26A12.26,12.26,0,0,0,98,56.61c-.07.3,6.63,0,10.6-1.92a33.13,33.13,0,0,1-5,2.93c-4.14,2.06-7,3-5.92,3.12.52,0,.37.08.82-.18a.11.11,0,0,0-.08-.2c5-1.33,12.81-6,11.8-6.44a25.8,25.8,0,0,0,9-3c0,.47.57,0,2.12-1.21.28-.23-.07-.61-.36-.47a73.35,73.35,0,0,1-11.67,4.25.25.25,0,0,0-.14.35c-2.2.44-1,1.4-10.72,2.52,1.82-.76,9.09-4.67,9.55-5.41.36-.58.48-.32.29-.94a.15.15,0,0,0-.14-.11c-2.9,0-5.68,2.92-8.51,3.53-.48.11-.37,1.29,4.26-1.22.62-.33,1.93-1.44,2.62-1.43,1.42,0-1.09,1.12-1.37,1.28a58,58,0,0,1-9.3,4.42c-.12-.16-1.61.42-1.81.49-.71.16-1.17.12-1,.4a10.46,10.46,0,0,0-4.5,3.31C88.54,60.85,88.72,61,88.86,60.94Z"/><path class="cls-8" d="M90.6,57.37c.35-.27-.15-.76-.49-.49-1.66,1.3-3.37,2.56-5,3.88.38-.58,1.77-2.82,1-2.6a8.77,8.77,0,0,0-4.82,4.29c-.15.25.21.54.41.31,1.33-1.51,2.38-3,4.13-4a6.77,6.77,0,0,1-2.69,3.6c-.23.25.07.71.38.5C86,61.16,88.25,59.21,90.6,57.37Z"/><path class="cls-8" d="M75.47,57.12C71,69.9,72.53,70.07,72.75,69.44c1.33-4,1.94-8.19,3.18-12.19A.24.24,0,0,0,75.47,57.12Z"/><path class="cls-8" d="M77.29,58.68C76.77,61.86,75,64.72,75,68a.37.37,0,0,0,.73.1c.62-1.83,1.54-4.94,3.12-6.2,1.13-.9-.55,1.25-1.19,5.5a.21.21,0,0,0,.41.12A47.14,47.14,0,0,0,80,61a.27.27,0,0,0-.26-.34c-1.2,0-1.71,1.24-2.28,2.15A27.54,27.54,0,0,0,76,65.5c.47-2.27,1.41-4.45,1.7-6.76C77.78,58.48,77.33,58.42,77.29,58.68Z"/><path class="cls-8" d="M68.31,83.22c-.36,1.32-.22,5.57-.12,2.53.67,5.23,5,6.77,4.15,5.66-2.24-2.79-3.16-2.79-3.68-8.14A.18.18,0,0,0,68.31,83.22Z"/><path class="cls-8" d="M75.56,87.51c-2,0-7-5.85-5.88-13.44,0-.33-.44-.48-.5-.14a14.58,14.58,0,0,0,1.27,9.41C74,90.27,76.3,87.51,75.56,87.51Z"/><path class="cls-8" d="M76.92,84.46a6,6,0,0,1-4.38-6.9c0-.26-.36-.39-.42-.11A6.94,6.94,0,0,0,73,82.89C75,85.93,77.6,84.66,76.92,84.46Z"/><path class="cls-8" d="M77,80.18c-.22-.12-.45.17-.2.38s.3.31.46.46l-.07.94c-.43.48-1.87-.84-2.77-2.85-.07-.16-.33-.08-.32.09s0,.55,0,.83a.14.14,0,0,0,.27,0c1.54,3.52,4,2.82,3.15,1C78.67,81.76,78.53,81,77,80.18Z"/><path class="cls-8" d="M80,80.05c-4.26-2.28-5.2-5.84-4.36-10.47,0-.27-.36-.39-.43-.12-.85,3.61-.62,10.91,4.72,10.86A.15.15,0,0,0,80,80.05Z"/><path class="cls-8" d="M75.83,71.29A7.18,7.18,0,0,0,78,76.58c1.14,1.08,2.08-.06,1.84-1.34,0-.11-.19-.1-.22,0-.61,2.4-3-1.26-3.26-3.95C76.33,71,75.83,71,75.83,71.29Z"/><path class="cls-8" d="M80.56,73.72c.21.14.4-.13.31-.32-.21-.48-1.76-2.67-2.14-2.07-.66,1,.29,1.23.3.75A9.51,9.51,0,0,0,80.56,73.72Z"/><path class="cls-8" d="M83,64.9c-3.47,3.08-1.35,6.83-1.17,5.29.21-1.86.25-3.39,1.57-4.88A.29.29,0,0,0,83,64.9Z"/><path class="cls-8" d="M58.58,129.75c-29.53-1.61-14.77,1.05,0,.24A.12.12,0,0,0,58.58,129.75Z"/><path class="cls-8" d="M695.86,376.89q-40.22-76.18-73.51-155.74c-.19-.44-.91-.25-.73.2q33.27,79.5,73.52,155.78Q695.49,377,695.86,376.89Z"/></g></svg>