<svg xmlns="http://www.w3.org/2000/svg" xmlns:xlink="http://www.w3.org/1999/xlink" viewBox="0 0 670 375"><defs><style>.cls-1{fill:#666;}.cls-2{fill:url(#linear-gradient);}.cls-3{fill:url(#linear-gradient-2);}.cls-4{fill:#977763;}.cls-5{fill:url(#linear-gradient-3);}.cls-6{fill:#fff;}.cls-7{fill:#232323;}</style><linearGradient id="linear-gradient" x1="161.02" y1="86.92" x2="217.04" y2="86.92" gradientUnits="userSpaceOnUse"><stop offset="0" stop-color="#ea493d"/><stop offset="1" stop-color="#ea4988"/></linearGradient><linearGradient id="linear-gradient-2" x1="192.53" y1="60.57" x2="271" y2="60.57" xlink:href="#linear-gradient"/><linearGradient id="linear-gradient-3" x1="10.98" y1="72.03" x2="136.48" y2="268.21" xlink:href="#linear-gradient"/></defs><title>illus</title><g id="Layer_2" data-name="Layer 2"><path class="cls-1" d="M653.42,145.49a42.91,42.91,0,0,0-.15-7.58v-.08h0q-.13-1.25-.33-2.52a6.74,6.74,0,0,0-1.26-3,38.22,38.22,0,0,0-3.92-9.38,9.16,9.16,0,0,0-3.72-3.63,23.62,23.62,0,0,0-8.81-8.26A17.46,17.46,0,0,0,614,115.26c-9.07,10.24-10.94,23-12.22,35.89-3.32,12.72-1.89,26.64,5.39,38,3.52,5.49,8.91,7.74,15.31,7.2,6.19-.52,12.72-1.57,17.09-6.34s6.45-11.4,8.34-17.45q1.39-4.44,2.76-8.87a63.18,63.18,0,0,0,3.6-11.63A9.74,9.74,0,0,0,653.42,145.49Z"/><path class="cls-1" d="M570.05,196.69a223.64,223.64,0,0,1-11.22-51.43,11.09,11.09,0,0,0-3.33-7.1c0-.6.11-1.19.19-1.78.47-3.53-.3-7.07-2.62-9.4q-1.77-15.41-3.27-30.83c-.62-6.33-5.56-10.57-12-9.16L275.51,144c-23.82,5.18-47.57,10.7-71.6,14.81-5.61,0-11.54,4.68-9.85,11.83q9.83,41.63,19.64,83.24c1.52,6.45,3,12.91,4.57,19.36,1.64,6.75,5.35,12.5,13,12.68,6.26.15,13.16-2,19.3-3.14q10.56-1.92,21.09-4.05c54.88-11.07,109.39-24.14,164-36.4l6.89-1.54a79.19,79.19,0,0,0,12.69-1.48,138.06,138.06,0,0,0,41-14c19.51-3.45,38.78-7.89,57.2-14.86a14.24,14.24,0,0,0,1.63-.75l8.34-1.33C568.29,207.6,571.57,201.15,570.05,196.69Zm-171,4.53c1-.24,2-.5,3-.73s1.79-.39,2.68-.59Z"/><path class="cls-1" d="M99.94,185.3a264,264,0,0,1-2.86-27.36c-.53-9.14-.62-18.3-1.68-27.4S92.54,112.29,92.55,103a6.45,6.45,0,0,0-.48-2.6l-.13-4.61c-.1-3.5-3.82-7.31-7.59-5.78a13.76,13.76,0,0,0-1.54.73q-25,1-50,2.92a6,6,0,0,0-5.24,3.81,7.15,7.15,0,0,0-1.46,3.83c-1.09,15.1,1.82,30,2.76,45,.95,15.24,1.05,30.45,2.76,45.64q.59,5.25,1.28,10.49c.42,3.2.28,7.26,2,10.09,3.13,5.14,11.89,5.35,17.14,4.87,6.9-.63,13.67-2.36,20.55-3.26,7.47-1,15-1.55,22.49-2.15,4.36-.35,7.13-4.73,5.46-8.45C102.1,197.63,101,191.57,99.94,185.3Z"/><path class="cls-2" d="M216.47,46.4a2.05,2.05,0,0,0,0-2.83c-1.46-1.36-3.56-3.13-5.69-2.18-2.71,1.22-5.69,6.89-7.27,9.17-5,7.17-11.46,16.16-12.77,25a2.37,2.37,0,0,0,.07,1q-11.46,20.24-22.48,40.72a1.67,1.67,0,0,0-.23.23c-1.67,2.07-4.43,4.26-4.65,7.06a1.58,1.58,0,0,0,.14.73l-1.84,3.7-.11.1a1.84,1.84,0,0,0,.16,2.87,1.74,1.74,0,0,0,2.78.07l.95-1.1a2,2,0,0,0,.51-1.6l1.92-3.85a0,0,0,0,1,0,0,1.83,1.83,0,0,0,1-.89q3.59-6.69,7.21-13.35a2.45,2.45,0,0,0,.33-.32,53.76,53.76,0,0,0,6.77-10.68,58.5,58.5,0,0,0,6.35-10.59c.5-1.17.93-2.37,1.41-3.55,2.39-3.45,5-6.78,6.71-10.55C205.31,66.73,209.05,55.38,216.47,46.4Zm-6.86,2.5,1.21-1.58q-1.27,1.86-2.44,3.79l-.26-.14C208.61,50.28,209.1,49.58,209.61,48.9Z"/><path class="cls-3" d="M267.57,23.27c-13.62,12.3-28.65,24-40.77,37.83a56.42,56.42,0,0,0-4.91,6.81,2.08,2.08,0,0,0-3,.56c-3,4.65-7.91,8.09-12,11.69L193.18,92.24c-1.85,1.62.64,4.25,2.54,3-.06.2-.12.39-.17.6a2,2,0,0,0,2.94,2.25c2.8-1.77,4.17-4.15,6-6.83,0,0,0,0,0,0l.18-.14q3.51-2.82,6.91-5.77l.1-.1A32.77,32.77,0,0,0,215,83a27.56,27.56,0,0,0,4.51-4.71c1.59-1.47,3.19-2.94,4.77-4.43a2,2,0,0,0,.48-2L270.4,26.09C272.23,24.26,269.47,21.55,267.57,23.27Z"/></g><g id="Layer_4" data-name="Layer 4"><path class="cls-4" d="M252.9,374.72c8.74-.13,17.63-.41,26.48-.21,1.58-17,3.7-34,13.51-48.62a5.61,5.61,0,0,0,.52-5.31q6.39-9.57,13.47-18.66a7.49,7.49,0,0,0,1.5-5,72.7,72.7,0,0,0,14.84-32.39q5.31-11.26,10.12-22.76c2.59-6.2-6.65-10.69-10.86-6.33s-9.61,6.66-13.42,11.13A370.5,370.5,0,0,0,306,205.39c-.48-3.65-3.85-8.07-8.23-6.27a14,14,0,0,0-5.89,4.25,11.06,11.06,0,0,0-5.1-5.33c-5.82-2.74-9.44.78-12,5.35a8,8,0,0,0-2.14.09c-5.46,1-9.69,4.62-13.25,8.67-.54.61-1.14,1.4-1.79,2.24-1.3-5.2-8-7.53-11.73-2-6.9,10.14-9,22.13-10.44,34.09-1.61,13.8-3.06,27.73-2.33,41.64,0,.06,0,.11,0,.17-.23,8.14.22,16.3-.53,24.45-1.17,12.54-4.13,25-7.27,37.21a187.75,187.75,0,0,1-8.37,25.5C228.9,375.21,240.9,374.9,252.9,374.72Z"/><path class="cls-4" d="M451.79,343.64c3.86,9,10.11,17.1,15.39,25.08l4.05,6.13c.33,0,.67,0,1,0q28.57.45,57.16.63,13.79.07,27.58.09c4.73,0,9.47-.3,14.21-.5-1.8-2.1-3.7-4.11-5.5-6.09q-8.22-9.08-16.91-17.7-7.17-7.11-14.65-13.9c-15.13-21.39-38-33.6-58.44-49-4.39-4.29-8.82-8.54-13.23-12.82-3.95-3.83-7.93-7.83-11.75-12a114.17,114.17,0,0,1-8.89-15c-3.91-7.8-8.25-15.21-12.6-22.75a59.48,59.48,0,0,1-5.39-11.27c-.24-1.65-.39-3.32-.49-5a39.24,39.24,0,0,0,.05-8c0-.12,0-.25,0-.37a5.5,5.5,0,0,0-.68-3.28,18.94,18.94,0,0,0-1.14-3.22c-3.92-8.43-13.14-14-22.07-15.51a7,7,0,0,0-8,5.88,5.26,5.26,0,0,0-3.48-.48,24.76,24.76,0,0,0-8.89-1.92h-.19a20.51,20.51,0,0,0-14.46-1.92,5.4,5.4,0,0,0-4.61,5.68,39,39,0,0,0-5.7-1.44,6.77,6.77,0,0,0-8.11,7.23c-3-2.18-7.69-2.14-9.49,1.72s-2.45,7.61-.85,11.65a7.09,7.09,0,0,0,3.57,4q3.23,9.57,7.1,18.91a6.23,6.23,0,0,0-3.36-.35c-5.11-1.84-10.24,4.8-7.44,9.66l5.15,8.92a5.73,5.73,0,0,0,.18,1.06l.22.82a18.19,18.19,0,0,0,4.4,13.12,5.91,5.91,0,0,0,4.92,1.86l3.26,5.65a5.93,5.93,0,0,0,4.89,3.17,6.83,6.83,0,0,0,1.51,1.65A104.21,104.21,0,0,0,379.69,286c6.92,3.18,14.43,5.19,20.8,9.48s12,10.38,17.68,15.74l18.54,17.51C441.92,333.65,447,338.57,451.79,343.64Zm-83.08-118.3c-4.69-6-9-12.27-13.11-18.68a26.2,26.2,0,0,0-5.9-6.92c-.32-1.05-.63-2.1-.95-3.15l.38.27c13,8.41,25.15,21.09,26.51,36.92C373.27,231,371,228.21,368.71,225.34Z"/><polygon class="cls-5" points="29.5 104.5 86.5 99.5 94.5 197.5 36.5 202.5 29.5 104.5"/><polyline class="cls-6" points="264.12 43.8 308 30 332 104 289 118 264.12 43.8"/></g><g id="Layer_1" data-name="Layer 1"><path class="cls-7" d="M295.43,207.58a11.11,11.11,0,0,0,6.86-.55c.17-.09.1-.41-.1-.39-1.54.17-3,.68-4.56.7-3.43,0-3.39-1.06-3.13-3.8C294.57,202.8,293,206.91,295.43,207.58Z"/><path class="cls-7" d="M294.76,232.88c5.29,2.63,7,.35,6.22.58-2.11.67-4.08-.07-6-1C294.73,232.38,294.5,232.75,294.76,232.88Z"/><path class="cls-7" d="M295,229.88c2.36-.08,4.67.33,7,.31.74,0-.34-1.23-7-.84C294.7,229.37,294.7,229.9,295,229.88Z"/><path class="cls-7" d="M303.1,228.28c.74.55.13-2.94-6.64-1.41-.28.07-.16.48.12.43C299,226.85,301.06,226.75,303.1,228.28Z"/><path class="cls-7" d="M295,213.9c-.24.09-.14.47.11.39,3-.83,5.49-.31,8.44.2C304.74,214.69,301.16,211.83,295,213.9Z"/><path class="cls-7" d="M282.35,224c1.14-.28,3-.72,3.1-2.13a.14.14,0,0,0-.23-.1c-2.28,2.5-5.86,1.69-8.83,1.31C275.07,222.91,277.87,225.08,282.35,224Z"/><path class="cls-7" d="M276.61,221.27a21.12,21.12,0,0,1,6-1.11c1-.1-2.2-1.54-6.16.83C276.35,221.08,276.44,221.34,276.61,221.27Z"/><path class="cls-7" d="M279.7,217.21c.74.1,4.75,1.15,3.59.44a8.22,8.22,0,0,0-3.59-.86C279.43,216.76,279.44,217.18,279.7,217.21Z"/><path class="cls-7" d="M280.55,202.43a10.19,10.19,0,0,1,3.61-.31c1.27.13,4.42,1.47,3.62.71-1.8-1.72-5.17-1.58-7.36-.86A.24.24,0,0,0,280.55,202.43Z"/><path class="cls-7" d="M255.46,230c-1.13.31,3.32.48,5.8.11C262.32,230,259.25,229,255.46,230Z"/><path class="cls-7" d="M255.57,227.65c2.48-.77,4.64-.5,7.16-.21,1.1.13-1.9-2-7.29-.23C255.17,227.3,255.28,227.74,255.57,227.65Z"/><path class="cls-7" d="M242.77,234.62c-3.75-.87-6.63,2.93-5.31,2.15a13.08,13.08,0,0,1,2.67-1.34C241.1,235.12,243.67,234.83,242.77,234.62Z"/><path class="cls-7" d="M240.48,232.59c-.25.08-.14.46.1.39a9.39,9.39,0,0,1,3.66,0C245,233.06,243.47,231.68,240.48,232.59Z"/><path class="cls-7" d="M240.89,237.84c-.27,0-.29.45,0,.44a3.74,3.74,0,0,0,3.46-1.77C244.83,235.46,242.67,237.61,240.89,237.84Z"/><path class="cls-7" d="M251.28,215.69c.74-.06-1.1-1.14-4.13-.22a.16.16,0,0,0,.08.31C249.4,215.25,250.25,215.77,251.28,215.69Z"/><path class="cls-7" d="M239.53,266.76a.29.29,0,0,0-.57,0c-.35,4,4.53,4.55,3.41,3.46C241.63,269.51,239.58,269.31,239.53,266.76Z"/><path class="cls-7" d="M254.09,265.75a17.78,17.78,0,0,1,1.82,2.65.26.26,0,0,0,.44-.19c0-1.12-1-2.26-1.71-3C254.29,264.84,253.74,265.39,254.09,265.75Z"/><path class="cls-7" d="M279.86,260.65c0-.34-.56-.36-.54,0,.15,3.21-.8,5.67-2,8.58C276.71,270.86,280.68,267.56,279.86,260.65Z"/><path class="cls-7" d="M303.51,268.51a.37.37,0,0,0-.71-.2c-.73,2.42-2.39,4-4.39,5.4C297,274.74,302,274.23,303.51,268.51Z"/><path class="cls-7" d="M370.11,255.8c8.31,7,17.53,4.09,15.31,4-5.56-.18-10.36-1.17-15-4.42C370.19,255.22,369.88,255.61,370.11,255.8Z"/><path class="cls-7" d="M401.38,243.76c2.34,4.16,5.72,5.63,4.88,4.9-6.13-5.32-4.79-9.77-8.58-12.34-.21-.14-.39.19-.19.33C399.84,238.31,400.05,241.39,401.38,243.76Z"/><path class="cls-7" d="M388.5,221.43a52.43,52.43,0,0,0,4.9,8.63.17.17,0,0,0,.3-.18c-1.37-3-3.27-5.77-4.81-8.68C388.75,220.94,388.37,221.17,388.5,221.43Z"/><path class="cls-7" d="M291.24,280.58a.23.23,0,0,0,.44.12,11.8,11.8,0,0,1,1.33-3.07c.61-.93,2.65-3,1.73-2.56C292.77,276,291.54,278.52,291.24,280.58Z"/><path class="cls-7" d="M345,241.82c0,.15.26.22.29,0,2.62-13.36-7.43-10-5.4-9.68C347,233.27,344.7,238.74,345,241.82Z"/><path class="cls-7" d="M349.22,222.73c3-1.19,6.52-3.85,7.17-7.19.22-1.15-1.73,2.55-3.17,4a13.91,13.91,0,0,1-4.16,2.82C348.85,222.45,349,222.82,349.22,222.73Z"/><path class="cls-7" d="M349.23,220.16c1.64-.51,3.53-1.67,4.06-3.41.35-1.19-1.7,2.08-4.19,2.93C348.8,219.78,348.92,220.25,349.23,220.16Z"/><path class="cls-7" d="M350.83,215.82a23.33,23.33,0,0,0-4.55,2.28c-.32.17,0,.66.29.49a23.77,23.77,0,0,0,4.42-2.51C351.11,216,351,215.78,350.83,215.82Z"/><path class="cls-7" d="M350.55,190.71c-.31-.11-.45.4-.14.49a2.32,2.32,0,0,0,2.41-.94,9,9,0,0,1,3.44-3.06c.09,0,0-.17-.07-.16C352.75,187.5,352.57,191.41,350.55,190.71Z"/><path class="cls-7" d="M400.4,197.23a7.64,7.64,0,0,1-4.73.28c-.2,0-.35.24-.15.36C398.36,199.52,401.6,196.87,400.4,197.23Z"/><path class="cls-7" d="M370.08,204.91c2.87-.06,5.85-2.48,6-5.46.09-1.55-.7,4.16-6.06,5.14C369.85,204.62,369.9,204.92,370.08,204.91Z"/><path class="cls-7" d="M368.4,203.27c5.15-.64,6.31-5.25,5.5-4.19a9.57,9.57,0,0,1-5.54,3.9C368.2,203,368.23,203.29,368.4,203.27Z"/><path class="cls-7" d="M397.82,191.83c-1.62-.57-3.7.65-4.79,1.78a.18.18,0,0,0,.25.25,6.12,6.12,0,0,1,2.32-1.42C396.34,192.19,398.65,192.12,397.82,191.83Z"/><path class="cls-7" d="M369.43,197.72a4.18,4.18,0,0,1,3.22-.88c.76,0-1.34-1.19-3.43.68C369.08,197.64,369.29,197.85,369.43,197.72Z"/><path class="cls-7" d="M422.26,198c-.86,0-1.38.76-3.5.28a.19.19,0,0,0-.1.36C421.29,199.53,423,198,422.26,198Z"/><path class="cls-7" d="M407.59,229.43c2.71,2.44,3.59,6.7,3.72,5.16.18-2.15-1.86-4.33-3.43-5.53C407.66,228.89,407.39,229.25,407.59,229.43Z"/><path class="cls-7" d="M422.38,228c.6,1.65-.45-7.31-.61-8.43C421.54,218,420.27,222.16,422.38,228Z"/><path class="cls-7" d="M474.61,374.76c-14-21.46-24.94-37.94-48.18-60.74-15.07-14.78-18.62-18.86-27.18-22.34-3.28-1.33-6.88-1.86-10-3.57-9.3-5.11-3.15-3.1-18-8.49-11.08-4-11.72-10.93-23-19.1,2.56-.56,4.42-3.89,3.43-3.09a17.3,17.3,0,0,1-3.66,2.44.3.3,0,0,0-.15.37,17.59,17.59,0,0,1-3.65-3.33,6.89,6.89,0,0,1,3.7-2c1-.31-1.82-1.08-3.93,1.65-2.31-3.25-2.56-9.35-2.6-13.32,2.83.05,6-2.58,0-.32,0-.35.09-1-.22-.93a6.33,6.33,0,0,0-.55-2.6.3.3,0,0,0-.22-.51,41.55,41.55,0,0,1-2-4.35.41.41,0,0,0-.17-.62c-1.45-6.62,8.05-5,11.14-.92,2.62,4.65,9.53,15,9.72,15.41a2.61,2.61,0,0,0-1.6,1.64c-.11.3.34.57.54.32a3,3,0,0,1,1.49-1c1.32,3.39.88,5.68,4.6,10.22,1.84,2.26,4.08,4.16,5.9,6.44,2,2.53,3.14,5.81,5.42,8.11a.19.19,0,0,0,.3-.23c-4.32-8.1-3.76-7.37-8.49-12.69-7.12-8-4.64-8.9-7.52-13.8-2.52-4.29-4.09-5.29-9.38-15-6.53-12-7.25-17.15-11.3-25-1.5-2.89-3-5.73-2.52-8.94.68,1.09,1.73,1.29,1.48.91a7.11,7.11,0,0,1-1.23-2c.09-.31.17-.55-.16-.62,0-.17-.06-.33-.08-.5.74-.4.32-4.12,3.94-5.1a4.41,4.41,0,0,1,3.34.08c0,.22.16.24.38.29,1.45,1.32,1.1,3.6,1.34,5.32a.1.1,0,0,0,.08.07,48.18,48.18,0,0,0-6.29,3.1c-.15.11-.06.4.14.32a44.78,44.78,0,0,0,6.3-3.25.11.11,0,0,0-.06-.18c.43-.27.73-2.8-.65-5.11a6.91,6.91,0,0,1,2.07,1.27c.08.13.1.23.26.25a10.16,10.16,0,0,1,1.56,2,106.16,106.16,0,0,0,9,16.07c.05.35.06.64.43.63,11.54,16.82,21.11,26.31,14.62,17.86a2.48,2.48,0,0,0,2-1c3.17,7.55,1.93,2.58-.46-2.89a.55.55,0,0,0-.42-.95c-6-13.37-7.28-17.09-17.06-24.74-.05-.19-.11-.33-.33-.25l-1-.74c.29-.32-.37-.48-.76-.51l-.35-.23a19.12,19.12,0,0,1-4.93-3.71.39.39,0,0,0-.37-.15c-.18-.27-.36-.53-.56-.79-2.07-5.09,1.36-10.94,13.77-8,.23.37.45.32.57.14,17.57,4.62,24.71,26.75,31.39,36.09.14.2.53.09.42-.18a39.89,39.89,0,0,0-1.77-3.67c1.34.92,3,.46,2.25.36a4.61,4.61,0,0,1-2.77-1.3c-4.21-7.6-4-7.7-7-12.85a11,11,0,0,0-.16-1.11c-.05-.6,0-1.19-.07-1.79,1.91,2.5,2,3.9,3.22,6.05.09.15.37.1.35-.09-.6-6.17-8.58-12.13-4.61-7.26a2.32,2.32,0,0,0-1.33,0,36,36,0,0,0-18.85-14.59c2.34-4,5.21-2.34,8.79-1.92a8.8,8.8,0,0,0-3.58,2.25c-.1.1,0,.29.16.2,4.45-3,8-3,16.44-.6,20.22,5.71,11.85,10.13,25.44,27.25,3,3.82,4.82,3.9,4.28,3.58-2.77-1.63-4.39-4.8-6.94-8.86a43,43,0,0,1-.3-7.56,5.78,5.78,0,0,0,.12-1.85c-.31-1-1.59-1.1-2.31-1.79-1.19-1.15-1.2-2.6-1.44-4.12a.37.37,0,0,0-.67-.09,4.08,4.08,0,0,0-.22.54,8.78,8.78,0,0,0-3-.28c-1.07-1.43-2.57-3-6.77-5a20.21,20.21,0,0,1-.71-3.42c1.05,1.05,2.46,1,3.9,1.14.16,0,.15-.23,0-.24-6.07-.59-4.88-5.15-.85-5a32.42,32.42,0,0,1,5.62,1.22c.34.08.49-.45.14-.53-2.41-.55-7.36-2.59-9.18.15-.34-6-5.89-3.27,9.55-6.9a.31.31,0,0,0,.58-.12c1.07-.27,2.13-.51,3.2-.77.45,2.09,2.16,7.7,2.56,8.66a9.93,9.93,0,0,0-6.5-.61c-.29.07-.24.58.07.54,4.31-.57,7.49,1.18,10.51,4.11,10.08,9.79,10.13,8.57,10.15,13.83,0-.25-2.31-.11-2.58-.12-.8,0-1.59-.24-2.39-.24-1.14,0,2.1,1.71,4.86.54a.18.18,0,0,0,.11-.16,152.16,152.16,0,0,0,1.26,18c-.33,1.68,15.1,32.76,23.24,42.42,17,20.15,25.78,25.57,57.11,49.53a.34.34,0,0,0,.53-.13c37.79,37.21,41.52,37.4,64,65.26l1.75-.09c-7.23-8.86-14.43-17.23-20.39-23.31-8.42-8.59-48.14-46.12-48.88-45.89-13.19-12-43.09-24.53-65.06-64.74C462,236.84,556.46,212.24,563.58,209c11.4-5.16,4.28-22.66,3.2-22.71-.21-1.34-16.52-75.4-17.41-79.44-1.47-6.67-2.35-14.38-5.93-20.33a.3.3,0,0,0-.51,0c-2-.62-4.83.84-64.63,14-139.41,30.62-251.92,49.72-278.28,59,4.72-1.24,13.29-2.78,28.25-6,64-13.92,122.52-24.13,238.15-49.08,71.4-15.41,76.12-18,76.38-16.3a.51.51,0,0,0,.72.4c3.92,11.73,5.94,24.13,8.57,36.2,14.2,65.1,13.53,62.89,14.26,63,6.28,21.06.6,19.36-34.85,29-44.53,12-95,23.14-95.09,23.17-3.72-6.84-7.18-13.75-10.47-20.82,5.44-.1,82.62-16.81,139.22-32.4a.38.38,0,0,0-.2-.74c-76.85,21.22-139.18,32.66-139.18,32.66a24.17,24.17,0,0,0-.22-3.27c1.59.52,22.06-5,22.81-5.2l.09.24c.2.44.88.2.88-.24,0-2.12,1,3.47-12.35-59.13a.7.7,0,0,0-.23-1.07c-2-9.14-2.54-14-3.7-12.85,1.1-1.94,9.87-3.2-199.4,41.41-9.3,2-24.95,5-24.8,5.85-.54.54,2.28,12.72,15.2,75.92.17.86,1.49.5,1.31-.36q-1.55-7.4-3.08-14.81c1.38,0,11.22-2.06,13.05-3-1,9-.75,10.05-2,16.08-2.06,0-9.37,2.41-8,2.72s6.88-1.19,7.77-1.6c-.23,1.14-.44,2.29-.63,3.43-2.25-.17-4.49.88-6.67,1.33-2.5.51-5.12.66-7.49,1.66a.16.16,0,0,0,0,.31c2.47,0,4.86-.77,7.27-1.25,2.17-.43,4.67-.33,6.71-1.23-1,6.52-1,16-.71,22.57-3.44,1.19-7.23-1-9.06-4-2.61-4.22-23.5-103.24-27.86-117.83a.28.28,0,0,0,.11-.31,2.47,2.47,0,0,1,.23-2.15c-.6.42-.91.81-.94,1.17-1.19.26,24.82,111.5,25,112.24.95,3.65,2.27,7.77,5.32,10.23a8.13,8.13,0,0,0,7.22,1.76c.56,14,2.53,15.75,1.41,25a.43.43,0,0,0,.05.24c-2.82,5.54-3,12.17-3.76,18.23-1.2,10-6.59,27.48-12.53,44.73l1.41,0c2-5.84,3.9-11.57,5.54-16.79,10.42-33.15,5.7-35.26,10.93-47.55a.35.35,0,0,0-.23-.5c1.4-6.63-1.07-11.33-1.46-23.87a.52.52,0,0,0,0-.91c-.68-27,.94-23,2.05-34.51,2.09-21.67,4.12-29.53,11.87-38.27-.47,1.27-.24,1.43-.06,1.17.57-.85.82-1.88,1.39-2.73,1.44-2.13,4.47-2.36,5.08-1.07.44.94.29,1-1.66,5.07-.57,1.16,2.26-2.23,2.61-4.65,2.1,2.31,1,2.62,1.55,4.09a.32.32,0,0,0,.13.15c-7.35,8.36-5.39,16.39-8.36,31.09-.6,3-1.66,5.79-2.36,8.72-.52,2.17,2.84-2.53,4.68-13.84,1.39-8.57-.28-18.06,7.45-26.13a.58.58,0,0,0,.5-.53,53.5,53.5,0,0,1,5.56-4.74c2.41-1.8,5-3.59,8-1.77.18.11.4-.16.23-.3a4.38,4.38,0,0,0-2.59-1.09,3.56,3.56,0,0,1,3-1.28.31.31,0,0,0,.48,0c.85.11,2.26.28,2.67,1a.07.07,0,0,0,.1,0c-9.52,15.85-3.86,39.15-14.23,46.88-1.62,1.21,4.18.58,6.68-8.89,3.37-12.77.67-28.58,11.44-42.06,0,.32.44.25.52,0,1.16-3.09,4.62-3.81,7.41-2.51a.54.54,0,0,0,.62.69l.36-.07a2.32,2.32,0,0,1,.8,2.29.11.11,0,0,0,.22.06,2.53,2.53,0,0,0,.17-1.33c1.31,3.38,3.73,2.82,1.83,8.37-4.32,12.62-4.71,60-3.32,40,.38,4.54.91,5,.92,4.38a143.21,143.21,0,0,1,1.42-29.76,57.08,57.08,0,0,0,.95-7.8c.49-2.21,2.11-9.32,1.33-11.44a15.4,15.4,0,0,1,2.42-3.66c0,.37.23.4.33.27,1.9-2.37,4.73-2,7.18-.58a.17.17,0,0,0,.21-.27,4.63,4.63,0,0,0-.48-.4,13.4,13.4,0,0,0-.5-3c4.09-1,8.17-2,12.25-2.89a.44.44,0,0,0,.5-.12l18.2-4.17c.14,2.63,1.9,13.49,2.64,13.57-4.79.66-8.84,1.87-15.19,3.13-.66-4.28-1.22-8.61-2.23-12.8-.08-.36-.69-.29-.66.09.36,4.32,1.18,8.63,1.89,12.91-3.81.74-7.64,1.46-11.36,2.49-.94-4.28-4-8.17-4-6.67,0-1.26-1.31-2.28-1-1.62a3.84,3.84,0,0,1,.26,3.41.15.15,0,0,0,.26.15,3.64,3.64,0,0,0,.49-1.9,19.68,19.68,0,0,1,3,6.92c-.28.2-.22.73.14.75.71,4.11-.07,8.29.53,12.55,1.33,9.51,2.3,5.29.51,20.36-1.06,8.87,1.17,17.82.18,26.18-1.13,9.54,1.44,7.3.63,15,0,.28.44.34.49.06,1-5.35-.65-7.35-.59-10.14.1-5,1.8-1.46.62-19.19,1.08.86,2.12.2.84-.48a2.77,2.77,0,0,1-.93-.84c-.05-.77-.09-1.55-.13-2.32a66.06,66.06,0,0,1,10.4-12c10.41-9,13.5-1.43,14.23-.79-1.09-.11-3.6.2-4.48.89-.19.15-.17.2,0,.2-.84.61-3.25,3.56-3.76,8.25-.07.6.86.59.93,0a18.78,18.78,0,0,1,3-8,.79.79,0,0,0,.13-.29c.57-.12,1.61-.46,2.06-.51a21.62,21.62,0,0,1,2.71.07c-1.15,2.05-5.09,9.84-5.74,9.46a.41.41,0,0,0-.57.12c-.14,0-.27.15-.1.34a.39.39,0,0,0,.25.35c1,1.64-.73,3.51-1.29,5.08-.33,1-.37,3-.9,4.15-.78-1.53-3.21-.8-3.64-1.92a.13.13,0,0,0-.25,0c.05,1.91,3.5.77,3.15,2.88a.62.62,0,0,0,.27.61c-.52.68-.84.37-1.52.37s-.46,1.23.78,1a12.31,12.31,0,0,0-1.51,3.09c-1.83-1.76-.81-.49-1.94-2.75-.61-1.22-1.9-2.08-1.85-3.55,0-.17-.25-.25-.32-.09-.78,1.66,1.05,2.63,1.75,3.89.5.9.87,2.93,2.29,2.7-.95,2.84-1.36,6.2-4.36,10.4-4.08,5.69.13,5.83-7,16.21-7,10.21-11.76,19.14-15.83,25.13-6.54,9.61-13.54,15.54-18.58,57.4l1.27,0a315.82,315.82,0,0,1,5.2-32.07s2.32-9.32,12.49-23.65c4.45-6.28,9.67-16.3,15.2-24.38,7.6-11.09,4.62-9.66,6.86-15.74,1.64-4.44,2.15-2.31,5-11.7,1,.41,23.84-4.74,24.58-5.13,14.28,10.83,8.47,13.18,26.69,19.73a46.34,46.34,0,0,1,10.15,5.08c17.14,11.45,9.81-4.88,51.37,39,13.69,14.44,25.89,32,37.18,49.18Zm-100-146.68c-.74.4-.58,1.11-2.08,1.28l-1.85-2.42a24.38,24.38,0,0,0,3.14-.67C374.12,226.87,374.38,227.47,374.64,228.08Zm-1.27-2.81a23.1,23.1,0,0,0-3.14,1c-3-3.9-5.9-7.82-8.73-11.81.73-.07,5-.79,5.66-1.25C367.57,214,372.36,223.13,373.37,225.27Zm-6.72-12.91a35.92,35.92,0,0,0-5.7,1.36c-.74-1.05-1.47-2.09-2.19-3.15-.38-2.85-.72-5.76-1.31-8.58C363.42,207.09,365.06,209.58,366.65,212.36Zm-10-11c.14,2.46.51,5,.9,7.42-1.88-2.81-3.65-5.67-5.26-8.63a12.39,12.39,0,0,0,2.27-.23C355.26,200.36,356,200.83,356.64,201.34ZM353.15,199a2.77,2.77,0,0,0-1.28.37c-.62-1.18,0,.1-1.09-2.08A24.24,24.24,0,0,0,353.15,199Zm31.51,2.65a4.11,4.11,0,0,0-.17,1c-.26-.42-.52-.84-.79-1.26A5,5,0,0,0,384.66,201.64Zm19.18-7.77a5.69,5.69,0,0,0,2.54,4.12c.74.52.94.16,1.06,1.48s-.31,3.43.57,6.95c-3.65-5.93-3.8-8.86-6.21-12.73A13.72,13.72,0,0,0,403.84,193.87Zm-56.33-2.76a26.62,26.62,0,0,0-.88-4.16l2.65-.61A7.29,7.29,0,0,0,347.51,191.11Zm10.16-6.69,4.17-1c.14.77.26,1.1.42,1.81A41.67,41.67,0,0,0,357.67,184.42Zm15.54-.61a.26.26,0,0,0-.12-.41c-3-.7-8.28-1.78-9.33,2.26l-.63-.18c-.05-.21-.41-1.5-.66-2.16l14.71-3.38c-.26.32.59,3,.72,3.35A13.6,13.6,0,0,0,373.21,183.81Zm19.7-2.45a2.28,2.28,0,0,0-.15,1.45c-.74.37-.05,3.21.42,4.29a54.18,54.18,0,0,0-14.4-3.75c0-.39-.9-3.3-1.32-3.48l13.94-3.19C391.52,177.41,392.12,181.5,392.91,181.36Zm17.3,1c-.19-1.76-2.37-8.05-2.93-9.43,4.62-1.11,9.24-2.25,13.84-3.46,0,2.32,2.18,13.34,2.5,14-5.3,1.08-7.1,1.27-9.4,2A23.76,23.76,0,0,0,410.21,182.4Zm37.7,26.5s-6.61,1.53-17,4.28c.72-2-.85-10.86-2.79-13.34-.77-1,.83,6.14,1,6.88.84,4.89.35,5.47,1,6.67-1.52.38-3.47.59-4.58,1.73a103.65,103.65,0,0,1-.95-15c4.13-.56,19.85-4.22,20.52-4.48C447.51,207,447.18,206.62,447.91,208.9Zm-3.05-14.37c-.75.05-16.75,3.63-20.3,4.76-.08-4.29.27-4.11-9.56-13,2.94-.22,26.45-4.89,27-5.1ZM441.78,180c-1.22,0-16.49,3.14-17.22,3.29.13-1.7-2.12-12.13-2.95-14.08a.63.63,0,0,0-.65-1l-3.1.79c0-1.13-1.78-12.14-2.58-13.18l20.44-4.49C439.84,170.92,439.05,167.18,441.78,180Zm-8.73-42.93c-.49.56,1,6.48,2.4,13l-28.78,6.32q-1.46-6.45-3.13-12.83C403.91,143.49,432.85,137.42,433.05,137.11Zm-30,6.57q1.23,6.48,2.7,12.92l-14.51,3.18c-.05-1.16-1.34-11.22-1.84-13.2Zm-14.24,3c0,2.24,1.18,12.35,1.37,13.31l-12,2.63c-2.65-16.79-5.26-17.19-.9.2l-14.13,3.1c0-.78-2.24-13-2.64-13.21Zm-28.6,6.09c-.37.35,1.95,12.56,2.27,13.3l-29.35,6.43c.07-1.54-2.67-12.61-2.85-13.35Zm-30.46,6.49c.13.75,2.07,12,2.76,13.38l-14.22,3.12a98,98,0,0,0-3.34-13.35Zm-15.27,3.25a96.73,96.73,0,0,0,3,13.43l-14.65,3.21c0-.74-2.52-13.2-2.88-13.54Zm-19.64,4.19,4.68-1c-.13.56,2,12.78,2.29,13.67l-13.35,2.93a84.06,84.06,0,0,0-3.49-12.71c-.1-.24-.54-.25-.5.07a83.44,83.44,0,0,0,3,12.86l-15.29,3.35c0-.58-2.24-13.55-2.78-13.76l27-5.74Zm-25.86,5.5c-.34.41,1.9,13.15,2.23,13.88L257.77,189c-.19-.74-3.25-13.24-4.06-13.57Zm-15.56,3.32c-.61.61,3.17,13,3.4,13.72-31.47,6.9-17.25,3.79-29.69,6.47-.16-.74-2.59-12.65-3.4-13.85C232.14,180.05,222.87,182,253.38,175.54ZM252.71,206c-5.23,1.2-6.3,1.46-14.33,3.18-.16-1.19-2.81-11.84-3.53-13.61,5.07-1.14,10.14-2.31,15.2-3.46C249.68,196.85,251,201.69,252.71,206Zm-43.17-21.35c4.49-.75,9-1.68,13.44-2.64-.28,1.14,2.85,13.18,3,13.92-4.44,1-8.87,2-13.26,3.12C211.78,194.25,210.8,189.43,209.54,184.68ZM213,200.09c7-1.24,14-2.72,20.91-4.27-.15.43,0,.27.25,0,.18,1.7,2.83,12.35,3.32,13.64-.89.19-21,4.5-21.48,5.21C213.05,200.48,213.72,203.84,213,200.09Zm22.45,41.34c-.79-.67-12.54,2.55-13.28,2.9L219,229.46c1.32.21,18.94-3.86,19.86-4.25A64.13,64.13,0,0,0,235.41,241.43ZM254.31,210a2,2,0,0,0-1.48-1.2c-3.82-1.13-4.59,1.58-5.37,3.11-3.77,3.17-6.41,7.86-8.23,12.45-.53-.52-4.3.59-5.47.86-14.38,3.25-13.83,3-14.83,3.7-.65-3.12-1-4.91-2.84-13.69.8.55,24.7-5.15,25.44-5.32.79,9,3.71,8.35.67-.16,4.57-1.07,6.43-1.48,12.71-2.86a13.17,13.17,0,0,0,.44,3.63A2.38,2.38,0,0,0,254.31,210Zm1.4-4.67c-.2-.25-.59-.29-.66.15l-1.39.32c-2-5.27-3.22-13.76-3.22-13.76,4.41-1,5.28-1.18,14.15-3.12a125.71,125.71,0,0,0,3.93,13.48C264.24,203.37,260,204.36,255.71,205.34Zm19.67.79c-.29-1.24-1.64-1.43-2.76-1.55a2,2,0,0,1-.1-1.05c.09-.2-.12-.44-.36-.17a1,1,0,0,0-.37,1.16c-1.59,0-4.62,1.26-4.27,2-3.24.7-7.76,4.68-9.93,6.82a23.4,23.4,0,0,1-1.65-6.66s.07,0,.07,0c7.62-1.66,15.25-3.3,22.82-5.14A28.12,28.12,0,0,0,275.38,206.13Zm4.36-6.1c-.34-.06-9.77,2.05-10.11,2.13a132.4,132.4,0,0,0-4.39-13.38l15.11-3.31a119.76,119.76,0,0,0,2.87,12.65A5.61,5.61,0,0,0,279.74,200Zm8.17-.82A6.39,6.39,0,0,0,284,198a119.19,119.19,0,0,0-3.14-12.68l14.14-3.1c.1,1.54,1.68,13.61,2.4,14.56C294.25,197.56,291.07,198.34,287.91,199.21Zm7,1.82c-.54-.61-2.25,2.61-2.58,3.61a38,38,0,0,0-2.56-3.65.25.25,0,0,0-.45.06,3,3,0,0,0-.44-.93c4.07-.77,8.12-1.67,12.16-2.61a13.1,13.1,0,0,0,.28,2.41C299.06,198.89,295.16,199,294.88,201Zm3.24-4.38c.2-1.61-2.14-12.88-2.61-14.5l15.13-3.32c0,2.14,2.23,13.2,2.62,14.44C308.22,194.4,303.16,195.48,298.12,196.65ZM314.37,193c-.12-1.08-2.38-12.16-3.32-14.29l79.58-17.45a.46.46,0,0,0,.47-.11L414.69,156c-.28.87-.17,1.15.77,6.66.35,2.08.41,4.69,1.22,6.7-4.46,1.14-8.93,2.23-13.4,3.3-.1-1.34-2.63-12.36-2.8-13.1-.08-.37-.61-.21-.56.15.13.74,1.9,11.87,2.33,13.19-4.57,1.08-9.16,2.14-13.74,3.18.84-.73-3.75-16.47-3.5-12.77.05.74,2.14,12.65,3.33,12.81C351.11,184.6,314.37,193,314.37,193ZM333,190.09l13.12-3c-.1.21.59,4.74.63,4.94a5.68,5.68,0,0,0-2.18-.87c-2-2.1-9-1-8.31,4.93-.43.12-.25,1.07-.13,1.5a11.31,11.31,0,0,0,.37,6c-.34,0-.68.08-1,.13.45-.16.39-.62.25-1.07C335.55,201.91,333.86,191.51,333,190.09Zm3.82,14.47s2.66,5.89,5.55,13.21c-.21,0-10,2.09-10.16,2.14-.18-1.23-2.12-11.56-2.81-13.56C330.39,206.16,336.05,205,336.77,204.56Zm-8,1.91c.11,2,2.18,12.29,2.5,13.63-8.84,1.87-14.3,3-14.53,3-.15-.74-2.52-11.63-3.25-13.6C321.14,208,314.72,209.09,328.72,206.47ZM308.7,225c-1.39-6.82-.08-9.5-.87-14.54,1.66-.23,3.31-.52,5-.85.19,2,2.7,12.74,2.94,13.68C313.36,223.82,311,224.37,308.7,225Zm4.64,18.91a37,37,0,0,0-4.28,1.56.2.2,0,0,0,.1.36,17.17,17.17,0,0,0,3.3-.84,34.36,34.36,0,0,0-3.55,5.42,55.85,55.85,0,0,1,.27-9.12c2.37-.39,3-.71,9.13-2.25A40.08,40.08,0,0,0,313.34,243.94Zm18.88-8.16c-3.52-2.57-7.69-1.17-11.26,1.29-1.67,0-10.32,2.81-11.68,3.34.86-7.57.78-8.95-.38-14.43,2.81-.4,33.46-6.79,33.89-7a111.64,111.64,0,0,0,5.09,11.35c-4.82-3.88-11.62-2-10.39,3.56C336.94,233.91,332.31,235.23,332.22,235.78ZM334,239c.82-.3-.56-2.16-1.2-2.75a27.07,27.07,0,0,0,5.08-1.22c.53,1.44,1.2,2.62,1.72,4.08-1.76.34-3.55.7-5.27,1.21.15-.35.31-.7.44-1s-.19-.38-.42,0C334.29,239,334.15,239,334,239Zm-10.48,27.35a25.38,25.38,0,0,1,1.94-4.62,1.41,1.41,0,0,0,.63-1.22c1.55-.92,1-3.91,2.22-6.74.46-1.07,1.21-2.86.54-3.93,1.2-1.16,4.87-8.19,5.22-8.93a52.94,52.94,0,0,0,5.75-1.2c.32,1,.86,3,1.3,2.69-.61,12.4,1.52,15.27,5.48,18.44C345.81,260.9,324.92,265.59,323.47,266.32Z"/><path class="cls-7" d="M294.8,166.72h0Z"/><path class="cls-7" d="M347.68,192.78c0-.06,0-.12,0-.18a2.29,2.29,0,0,0,.08.28A.94.94,0,0,1,347.68,192.78Z"/><path class="cls-7" d="M297.38,166.17h0Z"/><path class="cls-7" d="M297.41,166.16Z"/><path class="cls-7" d="M195.11,161.81a21.67,21.67,0,0,1,4.91-2.23C197.16,160.33,195.71,161,195.11,161.81Z"/><path class="cls-7" d="M408.52,195.23a16.51,16.51,0,0,0,2.47,8c1,1.45-1.52-4.1-2-8C408.94,194.94,408.49,194.93,408.52,195.23Z"/><path class="cls-7" d="M435.79,132.6c18.33-4.26,44-10.55,43.54-10.21,1.85-1.3,1.84-7.55-2.29-10.23-3.68-2.38-4.45-1.11-43.27,8.55-1.13.28.37,7.17,1.17,11.41A.7.7,0,0,0,435.79,132.6Zm26.86-18.07c6.64-1.65,13.05-4.62,15.83,1.59.94,2.11.58,4.43.12,4.93s-12,3.13-12.66,3.28c.09-1.43-1.92-7.63-2.67-9.17a.29.29,0,0,0-.54.15c.13,1.74,1.55,8.07,2.31,9.22-7.3,1.64-7.49,1.57-14.7,3.23,0-.82-1.79-9.62-2.53-9.51C455,116.35,457.17,115.9,462.65,114.53Zm-28.11,7.26c4.4-1.15,8.79-2.36,13.2-3.52-.7.3,1.33,9,1.67,9.7-4.43,1-8.85,2.09-13.27,3.13a80.08,80.08,0,0,0-1.84-8.26C434.57,122.62,434.52,122.15,434.54,121.79Z"/><path class="cls-7" d="M457.13,130.33c-19,4.21-19.69,4.15-19.62,4.89-.89.3,2,12,2.59,14.77,3.31,16,3,15.68,3.91,15.47,4.82-1.14,9.63-2.32,14.45-3.47a.48.48,0,0,0,.73-.17c13.3-3.17,25.7-5.86,26.6-6.51,2.07,0,1.64.61-1.4-14.65a.55.55,0,0,0-.21-1C480.71,122.23,484.63,124.23,457.13,130.33ZM438,135.68c.74-.05,7.68-1.4,13.88-2.77.15,2,.36,2.64,2.64,12.78-4.54.89-9.09,1.84-13.49,3.15C440.19,144.47,439.5,139.87,438,135.68Zm6.28,28.43c-1.65-7.77-3.08-14.45-3.08-14.45,4.56-.58,9.11-1.57,13.63-2.58.17.77,2.93,13.28,3.12,13.82C453.44,162,448.87,163,444.32,164.11Zm41.21-10.19c-1.67.14-2.4.1-2.24.84,0,0-17.15,4.21-24.13,5.86-.05-.45-3-13.35-3.14-13.8,6-1.35,7.09-1.57,13.59-2.82,2.36,10.47,2.13,10.93,3.09,12.66a.38.38,0,0,0,.71-.19c.13-2-.31-2.39-2.63-12.69,4.13-.8,8.27-1.64,12.3-2.74Q484.29,147.49,485.53,153.92Zm-2.68-14.12c-4.15.63-8.29,1.54-12.41,2.49-2.27-10-2.33-10.66-3.13-12.37-.12-.25-.51-.11-.51.14,0,1.93.27,2.61,2.49,12.49-6.41,1.48-7.49,1.72-13.58,2.91-2.21-9.72-2.33-10.68-3.12-12.7C484.55,125.65,479.66,123,482.85,139.8Z"/><path class="cls-7" d="M498.47,197.14c0-.23-2.88-13.27-2.93-13.5-.17-.8,0-.61-14.92,2.81-1-4-2-8.33-3.83-12.1.74-.28-.26-3-5-1.74a75.49,75.49,0,0,0-9.79,2.93.36.36,0,0,0,.19.7c6.75-1,10.37-3.57,13.58-2.25.85,4.3,2.46,8.5,3.61,12.75-9.41,2.16-7.85,1.81-13.57,3.07-1-4.47-1.95-9-3.4-13.36-.1-.28-.6-.26-.56.07.61,4.57,1.78,9.06,2.81,13.54-20.09,4.46-19.73,6,.3,1.29,2.48,10.94,2.27,11.24,3.13,13.07-4.57,1.14-9.15,2.27-13.73,3.36-1-4.35-2-8.78-3.41-13a.36.36,0,0,0-.7.19c.71,4.61,2,9.17,3.12,13.69a.58.58,0,0,0,.72.4C489.58,200.13,501.73,198.5,498.47,197.14Zm-29.45,7c0-1.91-.26-1.8-2.93-13.1,5.79-1.37,4.13-1,13.59-3.15,2.37,9.42,2,11.29,3,12.85Zm14.33-3.56c.44-1.47-2.21-12.06-2.44-13l13.55-3.1q1.37,6.33,2.72,12.66C494,197.6,492.69,198.29,483.35,200.62Z"/><path class="cls-7" d="M500.81,197.61c-.33.17-.31.8.14.75,4.34-.55,56.37-13.23,57.47-13.51.7-.18.7-1.26-.32-1.34-6.18-42.12-23-94.81-14-59.25l-11.41,2.82c-.84-3.9-1.72-7.8-2.87-11.6,3.63-.8,7.25-1.6,10.86-2.44.84-.19.49-1.46-.35-1.28s-55.57,12-55.6,13C483.48,124.7,499.59,197.05,500.81,197.61ZM531,190c.54-.39.35-.47-2.48-13.43,13.28-2.95,12.37-2.7,13.35-3,2,9,2.12,10.32,3.08,13.07ZM510.88,164c5.52-1.47,8.93-2.3,12.87-3.21q1.59,7.43,3.2,14.84l-12.5,2.8C514.72,178,511,164.41,510.88,164ZM521,148.15c1.91,8.73,1.42,6.48,2.48,11.38-3.9.92-7.47,1.81-12.9,3.28L507.46,151C513.2,149.77,510.86,150.26,521,148.15Zm-13.86,1.6c-1.24-4.71-2.44-9.45-3.68-14.17l14-3.42c.81,3.57.63,2.76,3.24,14.69C510.52,149,512.91,148.53,507.14,149.75Zm15.06-1.85c10.78-2.25,13-2.52,13.17-3.26,1.88,8.27,2,8.75,2.65,11.72-1.95.41-5.78,1.12-13.32,2.89C523.58,154.22,524.09,156.54,522.2,147.9ZM525,160.49c3.33-.76,10-2.23,13.34-2.81,2,8.86,2,8.77,3.32,14.72-1.13.11-.41,0-13.38,2.91Q526.64,167.9,525,160.49Zm19.44-34.9c7.54,29.9,8.56,39,12.49,57.9-.32,0-.56.1-.61.46-3.43.78-6.85,1.6-10.27,2.42-.3-2.63-.65-3.36-2.94-13.4a.44.44,0,0,0-.12-.52c-1.46-6.42-1.42-6.24-3.42-15a73.83,73.83,0,0,0,11-2.26.44.44,0,0,0-.11-.86,56.18,56.18,0,0,0-11.21,1.74c-.27-1.18-5.08-22.16-6.28-27.71Zm-9.14,18.69c-.45-.66-1.91-.14-13.36,2.32-2.6-11.84-2.45-11.14-3.21-14.74l13-3.17C532.61,132.43,532.28,131,535.28,144.28ZM529,115.67c.61,3.93,1.51,7.83,2.44,11.72l-13,3.2c-.85-4-1.72-8-2.8-12Zm-14.71,3.24c-.77,1.24-.45,1.06.53.36.67,3.89,1.53,7.77,2.4,11.63l-14.05,3.48c-1.1-4.1-2.24-8.18-3.5-12.22C504.09,121.15,509.46,120,514.26,118.91Zm-29.14,6.2c4.48-.3,9-1.77,13.73-2.81,0,.82,2.42,10.31,3,12.41a135.15,135.15,0,0,0-13.62,3.62C487.27,133.9,486.33,129.46,485.12,125.11Zm3.23,13.9a136.35,136.35,0,0,0,13.78-3.1c1.23,4.71,2.52,9.41,3.76,14.11-4.82,1-9.64,2.07-14.4,3.32C488.76,141,489,142.15,488.35,139Zm3.3,15.05c4.88-.79,9.72-1.78,14.56-2.8q1.56,5.94,3.13,11.89c-.88.24-13.52,3.61-14.68,4.56C494.16,165.47,492.16,156.37,491.65,154.06Zm18,10.24c.1.38,3.6,14.1,3.94,14.29-9.76,2.2-12,2.22-15.09,3.72a.31.31,0,0,0,.16.58c2.92,0,1.52,0,28.58-6,2.85,13,2.73,13.17,3.33,13.25-24.88,6-25.4,5.89-29.7,7.45a3.78,3.78,0,0,0,0-1.2c-.61-5.45-1.25-6.37-6-28C495.41,168.45,506.07,165.26,509.64,164.3Z"/><path class="cls-7" d="M206.79,180.43c-.1.5.64.56.83.33,2.3-.27,4.57-.79,6.83-1.25,1.32-.27,7.54-1,7.37-2.23a.51.51,0,0,0,.35-.56c-.57-3-1.63-2.08-2-9.35-.05-.89-1.36-.39-7.85.81-3,.55-8.33,1.29-8.12,2a.34.34,0,0,0-.34.43C204.15,171.93,205.83,179,206.79,180.43ZM219.18,168c-.31,2.89.17,6.84,2.08,9-2.09-.18-12.81,2.72-13.56,2.95a70.68,70.68,0,0,0-3.21-9.55C206.73,170.29,217.55,168.41,219.18,168Z"/><path class="cls-7" d="M242.1,191.69a29.14,29.14,0,0,0-1.42-6.06,62.53,62.53,0,0,0-2-6.55.25.25,0,0,0-.48.14c.28,1.9,2.31,10.8,3.26,12.64A.34.34,0,0,0,242.1,191.69Z"/><path class="cls-7" d="M347.71,168.47a86.58,86.58,0,0,0-2.12-11.17c-.06-.28-.55-.22-.51.07a86.67,86.67,0,0,0,1.75,11.22C347,169.06,347.76,169,347.71,168.47Z"/><path class="cls-7" d="M324.92,176.17c.24,3.56,2.51,15.93,3,13.08.32-1.84-2-12-2.41-13.16C325.41,175.78,324.9,175.82,324.92,176.17Z"/><path class="cls-7" d="M342.09,172.69c-.07-.18-.39-.18-.37.05.3,4.31,1.56,8.67,2.58,12.86.14.61,1.06.35.94-.26C344.37,181.15,343.65,176.68,342.09,172.69Z"/><path class="cls-7" d="M356.55,169.46a.3.3,0,0,0-.58.16c.32,1.56,2.3,10.26,3.26,11.83a.35.35,0,0,0,.65-.17c0-1.88-.88-3.87-1.39-5.67C357.9,173.54,357.28,171.49,356.55,169.46Z"/><path class="cls-7" d="M370.85,166.72c-.09-.34-.66-.28-.63.09.18,1.88,1.42,10.42,2.15,12.38a.39.39,0,0,0,.76-.1,33.27,33.27,0,0,0-.92-5.92C371.81,171,371.42,168.85,370.85,166.72Z"/><path class="cls-7" d="M235.83,164.45c-1,.41.62,6.21,1,7.91.55,2.32-1.41,1.66,15.83-1.84a.7.7,0,0,0,.35-.06c27.11-5.48,50.09-8.17,44.45-9.53a25.36,25.36,0,0,0-.4-4.62c-.15-1.49,0-3.38-.95-4.62a.11.11,0,0,0-.19,0c-.7,1.46-.18,3.4,0,5a23.16,23.16,0,0,0,.49,4.4c-4.5.78-9,1.62-13.49,2.47a44.19,44.19,0,0,0-1.66-8.65c4.72-1,9.45-2.08,14.19-3.12.71-.15.41-1.24-.3-1.08C284.21,153.06,224.69,165.71,235.83,164.45ZM280.67,155a44.1,44.1,0,0,0,1.08,8.77c-4.63.88-9.26,1.77-13.9,2.63.42-.56-1.17-7.18-1.52-8.27Zm-15.12,3.3c.06,1.1.95,7.88,1.44,8.26-4.62.85-9.24,1.73-13.84,2.67a45.1,45.1,0,0,0-2.74-7.64Zm-15.82,3.44c-.24.73,1.8,6.67,2.2,7.74q-6.9,1.41-13.74,3c0-.16-2.22-8.1-2.06-8a.41.41,0,0,0-.22-.06A138.28,138.28,0,0,0,249.73,161.72Z"/><path class="cls-7" d="M303.36,149.23c.14,2.09,1.55,8.61,2.76,10.33a.31.31,0,0,0,.2.25.32.32,0,0,0,.39,0c18.64-1.53,59.42-11.56,59.77-12.65a.6.6,0,0,0,.15-.56c-.37-1.57-1.86-10.43-3-9.41-.39-1-58.32,11-59.71,11.35a.31.31,0,0,0-.54.16A.3.3,0,0,0,303.36,149.23Zm60.11-11.47c0,1.09.12,1.57,1.84,8.71q-7.12,2-14.28,3.76c.1-.79-1.34-9.19-1.93-9.55C349.41,140.62,363.22,138,363.47,137.76Zm-30.1,5.94c.2,1.19,2.2,8.39,3.09,9.6a.31.31,0,0,0,.58-.16c0-1.68-2.77-8.8-3.14-9.55l14.78-2.83c-.34.56,1.37,8.94,1.76,9.61-13.35,3.3-20.23,4.52-29.23,6.1-1.37-12.87-3.85-13.07-1.07.19-4.44.77-8.88,1.56-13.29,2.46,0-.63-2.58-9.57-2.71-10C307.29,148.8,332.62,143.84,333.37,143.7Z"/><path class="cls-7" d="M370.51,134.68c.12,1.24,1.8,9.32,2.61,10-1.3,3.26,50.4-9.17,58.31-12.7.22.66,1.25.35,1.11-.36a72.11,72.11,0,0,0-2.07-8.95c.91-.25.48-1.15-.14-1.06S362.08,134.68,370.51,134.68Zm45-8.93c0,1.3.69,7.47,1.38,9,.18.41.71.14.75-.2.18-1.54-1.06-7.71-1.4-8.93,4.43-.88,9-1.6,13.33-2.73a63,63,0,0,0,1.59,8c-3.8.79-16.27,6-42.53,10.75-.07-.86-1.89-9.41-2.48-9.82C394.9,130,392.18,130.46,415.52,125.75Zm-29.72,6.14c-.39.55,1.76,9.26,2,9.9-4.7.84-9.4,1.65-14.08,2.59,0-1.66-2-8.31-2.59-9.79C376.05,133.85,380.93,132.9,385.8,131.89Z"/><path class="cls-7" d="M404,137.55c-1.94-7-2.2-7.64-2.78-8.52a.2.2,0,0,0-.38.1c0,1.07.06,1.74,2,8.73A.58.58,0,0,0,404,137.55Z"/><path class="cls-7" d="M645.35,119.27c-4.29-4.88-10.21-10-16.93-10.66-.09-.11-.17-.22-.26-.32s-.31-.06-.25.29c-7.76-.57-13.23,4.66-18,10.83-.36-.28-.51.46-.67.88-.42.55-1,1-.56,1.46-4.54,12.25-10,34.43-9.18,47.67.39,6.75,2.48,13.49,7.26,18.44,5.85,6.07,12.16,6,19,6,10.32,0,16.53-4.07,25.72-32.18C656.92,145.16,656.88,132.37,645.35,119.27Zm1.68,51c-1.29,1.46-2.58,4-7.6,5.51a.2.2,0,0,0,.11.39,15.73,15.73,0,0,0,6.22-2.71c-3.55,8.55-8.16,18-16.81,18.89-36.8,3.83-30.75-35.26-19.67-70.55.13-.08.76-.86.86-1-7.45,29.44-1.78,55.23,11.62,54.09.5-.05.69-.82.12-.94a14.22,14.22,0,0,1-10.31-8.27c-7.27-15.14-2.55-35.85-.71-45.74,4.77-5.63,10-10.8,17.42-10,1,3.24,1.35,2.68,2.78,9.82-1.23.13-4,.53-3.49,1.58-.93.21.66,4,3.57,12.2.26.72,1,.45,3.14.33-.07.23.37,9.23.3,11.15-.14,4.13-1.47,13.56-.56,11,2.65-7.37,2.29-19.53,1-22.22,1.31-.08,2.61-.18,3.91-.34a.43.43,0,0,0,.17-.81c1.37-6-.37-12.83-6.81-13a35.27,35.27,0,0,0-2.86-9.58c9.48,1.88,20.26,14.14,23.08,24.78C655.38,145.82,651.65,158.25,647,170.31Zm-17.91-49c2.58,0,5.37-.77,6.83.31,3.49,2.57,2.67,7.44,2.9,11.12-2.13.15-4.23.44-6.34.72C632.23,129.08,631.47,125.09,629.12,121.35Zm1,5.38-.09-.27C630.17,126.76,630.26,127,630.15,126.73Z"/><path class="cls-7" d="M86.16,89.85c-2.22-.22-1.65,0-16.64.83-35.27,2-40.45,1.48-42.58,6.44-.18.06-.16.23-.16.41-.15.44-.5,1.83,0,1.81-.29,21.54,6.71,112.13,8.64,112.87.35,5.15,6.5,6.9,52.69.48,2.7-.38,5.81-.48,8.46-1.28.74.45,4.21-1.51,4.61-6.79.16-2.27-8.17-108.62-9-111C91.33,91.07,88.86,89,86.16,89.85ZM97.23,210c-1.67-.24-5.53.66-7.4.93-51.73,7.43-53,4.9-53.8,1.15.45-.34-3.23-32.71-4.28-44.77-3.31-37.91-4.43-69.76-4.43-69.76,1.83-4.82,3.77-3.48,52-6.12,1.86-.1,3.88,0,5.78-.27,3.48,1.43,3.43,6.72,3.69,9.87,8.67,107.19,8.51,99.83,6.78,106.13a.43.43,0,0,0,.82.23c2.23-7.27,1.62.41-6.06-96.8-1.21-15.31-.84-17.76-3.69-19.71a.5.5,0,0,0,.44-.44c4.45.07,4.58,5.94,4.82,8.92C100.61,211.13,101.52,207.17,97.23,210Z"/><path class="cls-7" d="M94.13,207.61c-.74.13-32.29,6.75-55.52,6.51,22.79.23,44.68-2.77,55.77-5.6C95,208.37,94.72,207.51,94.13,207.61Z"/><path class="cls-7" d="M92.8,196.22c-3.71.3-50.08,4.84-55.95,5.74-.27,0-.21.48.06.47,6.56-.27,53.88-4.87,55.89-5.1C93.5,197.25,93.52,196.16,92.8,196.22Z"/><path class="cls-7" d="M86.88,98.72c-2.1-.25-2.21,0-14.71,1.14C-36.82,109.77,97.06,99.92,86.88,98.72Z"/><path class="cls-7" d="M86.56,99.84c0,2.25,6.57,87.7,7.62,97.3,0,.47.78.49.76,0C94.53,189.12,86.74,91.35,86.56,99.84Z"/><path class="cls-7" d="M35.77,200.87c0,.54.89.55.85,0C28.58,81.3,26,63.13,35.77,200.87Z"/><path class="cls-7" d="M66,205c.28,0,.35-.44.07-.49a1.85,1.85,0,0,0-1,3.56,1.89,1.89,0,0,0,2.37-.73c1.16-1.87-.89-3-.8-2.07a3.07,3.07,0,0,1,.07,1.31.91.91,0,0,1-1.12.63C64.23,206.88,64.77,205,66,205Z"/><path class="cls-7" d="M59.28,98c1.88-.17,4.46.06,6.11-1a.31.31,0,0,0-.07-.55C62.13,95.32,40,99.8,59.28,98Z"/><path class="cls-7" d="M304.28,30.1c-9.08,1.93-73,23.55-19.9,7.39,17.69-5.39,17.42-5.14,20.21-6.29A.57.57,0,0,0,304.28,30.1Z"/><path class="cls-7" d="M332.51,104.6c.25-.18.22-.72-.18-.67-3.37.42-6.77,2.29-10,3.41-14.7,5.2-32.86,9.62-32.86,9.62-1.35-7.24-53.75-155.83-4-7.72,2.58,7.67,2.54,8,3.28,9.13.22.36.89.25.85-.23,0-.21-.05-.42-.08-.63C293.45,118.25,328.74,107.37,332.51,104.6Z"/><path class="cls-7" d="M288.48,44c3.82-1.21-5.87,1.88-18.72,6.38-.31.11-.19.59.13.5,7-2.15,34.28-10.84,38.93-12.51l.12.36c-1.05,1-3,1.37-4.21,1.78-78.94,26.22,1.4,1.75,4.49-1,7,19.79,21.53,61.55,22.32,63.08.25.49.94.14.84-.35-.29-1.44-10.8-31-22.35-63.65a3.2,3.2,0,0,0,.41-.83c1.2-.44.86-1.1.12-1a5.39,5.39,0,0,0-2.51-3.54c-.43-1.12-.87-2.25-1.33-3.36-.16-.37-.74-.24-.62.17q.36,1.23.75,2.46l-.34-.16c-.23-.11-.55.21-.3.4l.94.71c.33,1,.66,2,1,3C268.41,48.9,249,56.48,288.48,44Zm21-7.94a.86.86,0,0,0-.34.07l-.51-1.4A4.19,4.19,0,0,1,309.48,36.09Z"/><path class="cls-7" d="M304.89,50.18a.1.1,0,0,0-.05-.2c-15.42,3.36-50.27,14.79-14.85,4.68C295,53.24,300,51.92,304.89,50.18Z"/><path class="cls-7" d="M308.83,57.82c-4.43.73-28,6.93-30.68,7.77C270.67,67.92,316.7,56.51,308.83,57.82Z"/><path class="cls-7" d="M307.76,66.13c-4.26.86-8.47,2.59-12.59,4C257.49,82.51,316.05,64.45,307.76,66.13Z"/><path class="cls-7" d="M313.67,72.45c.16-.06.1-.32-.07-.26C277.49,84.23,277.19,85.91,313.67,72.45Z"/><path class="cls-7" d="M193.73,93.8c-.83-.67-.12,2.62,3.44,4.93a.27.27,0,0,0,.25.15.59.59,0,0,0,.86-.59c4.81-3.65,9.18-8,13.64-12.09,14.61-13.26,15.93-13.94,14.25-14.36a4.11,4.11,0,0,0-.35-.45l.32-.21c2-1.43,46.7-46,46-45.29.4-.36,0-.76-.32-1.19.66.41.73-1.17.66-2a.59.59,0,0,0-.56-.56c-.5-.05-1.74-.31-1.94.19-.26-.32-.53-.63-.81-.92-1.77-1.88-87,84.8-23.44,23.37,7.63-7.37,15.51-14.55,22.92-22.14.74,1,1.57,1.94,2.39,2.88-2.81,3-41.67,40.49-45.45,45.58-1.17-1.34-3.53-3.79-4.22-4.06,5.31-7.29-34.62,31-29.33,27.29,2.51-1.75,28.29-26,28.89-26.7a34.86,34.86,0,0,0,4.18,4.84c-.74.65-24,21.62-27.25,25.2C195.35,96,195.24,95,193.73,93.8Zm76.64-71a3,3,0,0,0,.95.29,2.83,2.83,0,0,0,.18,1.2C271.13,23.82,270.76,23.32,270.37,22.83Z"/><path class="cls-7" d="M164,133c-1-.76-2.05-1.43-3.1-2.11,1.85-3.6,28.74-50.52,30.95-56.44A25.57,25.57,0,0,0,197,77.16C194.19,85,217.09,45.21,218,43c2.85-6.89-20.4,32.73-20.71,33.47A34.28,34.28,0,0,0,191.92,73c.47-.74,17-27.43,19.16-31.81,2.75.92,3,1.65,5,2.55,1,.46-.68-2.56-4.67-3.77a.34.34,0,0,0-.2-.06.62.62,0,0,0-.76.8c-3.67,4.93-6.69,10.47-9.9,15.7-10,16.25-11.28,17.59-9.48,17.48.09.07.24.18.44.31l-.24.29c-1.63,2-32,57-31.53,56.3-.36.6.6,1.08,2.31,2.32a2.2,2.2,0,0,1-1.61-.48c-.38-.3-.91.18-.55.56a2.78,2.78,0,0,0,3.12.59c2.21,1.47-.68,4.71,29.7-48.66C206.24,61.35,181.6,100.08,164,133Z"/><path class="cls-7" d="M210.13,45.49c-11.89,19.2-12.42,19.74-14.42,23.65a.15.15,0,0,0,.26.16c2.59-3.58,2.9-4.41,14.52-23.6A.21.21,0,0,0,210.13,45.49Z"/><path class="cls-7" d="M199.69,66.35c4.19-6.15,7.77-12.77,11.51-19.19a.24.24,0,0,0-.41-.24c-3.89,6.34-8,12.62-11.45,19.22A.2.2,0,0,0,199.69,66.35Z"/><path class="cls-7" d="M196.84,95.69c-.1.11,0,.32.18.22,8.63-6.22,34-29.81,9.86-9.16C203.49,89.66,200,92.5,196.84,95.69Z"/><path class="cls-7" d="M214.08,78.21c-23.78,18.46-22.6,21,.19.19C214.39,78.28,214.21,78.11,214.08,78.21Z"/><path class="cls-7" d="M289.35,88.19c35.92-11.67,34.31-12.71-.09-.33C289.06,87.94,289.14,88.26,289.35,88.19Z"/><path class="cls-7" d="M316.25,86.45a.13.13,0,0,0-.07-.26c-8.83,2.37-17.52,5.38-26.23,8.18C287.3,95.22,303.65,90.93,316.25,86.45Z"/><path class="cls-7" d="M293,99.63c32.13-9.2,32.35-9.95-.08-.29A.15.15,0,0,0,293,99.63Z"/><path class="cls-7" d="M295.57,106.51c38.22-13.38,31.15-11.7-.1-.38C295.23,106.21,295.33,106.59,295.57,106.51Z"/></g></svg>